<svg width="17" height="16" viewBox="0 0 17 16" fill="none" xmlns="http://www.w3.org/2000/svg">
<g clip-path="url(#clip0_1_173)">
<path d="M0.693848 8.6262V7.36615C0.762355 7.20047 0.754778 7.02123 0.780665 6.84861C1.38776 2.80683 5.20046 -0.030737 9.25626 0.542332C11.2114 0.81451 12.9813 1.84358 14.1846 3.4078C15.388 4.97202 15.9283 6.94617 15.6893 8.90485C15.3001 12.1713 12.7937 14.8233 9.55396 15.4011C9.3093 15.4446 9.05831 15.4494 8.81807 15.5191H7.59C7.50444 15.456 7.40057 15.4756 7.30586 15.4646C4.04847 15.0789 1.38965 12.5667 0.811603 9.32897C0.769931 9.09545 0.768669 8.85436 0.693848 8.6262ZM7.64114 3.56136C7.80751 3.48026 7.94547 3.3575 8.09038 3.24579C8.16299 3.18994 8.21476 3.19561 8.2798 3.24579C8.41271 3.34898 8.5491 3.44744 8.71263 3.56893C8.69115 3.37612 8.62896 3.22717 8.57277 3.0798C8.52794 2.96146 8.54719 2.89046 8.65453 2.82199C8.78618 2.7371 8.90709 2.63454 9.0318 2.53797C9.02548 2.5244 9.01948 2.51052 9.01317 2.49663C8.84711 2.49663 8.68042 2.49127 8.51468 2.49884C8.41997 2.50295 8.37608 2.47044 8.34894 2.37861C8.30253 2.22082 8.2678 2.05863 8.17467 1.88318C8.115 2.06999 8.06259 2.22303 8.01682 2.37829C7.99093 2.46729 7.94421 2.50453 7.84792 2.49916C7.67776 2.49158 7.50696 2.49726 7.33617 2.49726C7.45941 2.6281 7.5971 2.74455 7.74659 2.84439C7.82614 2.89867 7.83939 2.952 7.80688 3.04067C7.74374 3.21266 7.6945 3.38779 7.63925 3.56325L7.64619 3.55472L7.64114 3.56136ZM3.47674 8.80891C3.41897 8.63062 3.37477 8.47631 3.31889 8.32641C3.27911 8.22038 3.28195 8.14623 3.39339 8.08185C3.50484 8.01747 3.60523 7.9288 3.7091 7.84865C3.72835 7.83382 3.7533 7.80762 3.7514 7.789C3.74761 7.74703 3.70594 7.75587 3.67689 7.75555C3.54051 7.75555 3.40381 7.74829 3.26807 7.75555C3.16357 7.76218 3.11968 7.718 3.09285 7.62238C3.05055 7.47185 3.01487 7.31786 2.93153 7.16197C2.84881 7.30492 2.81913 7.44409 2.78378 7.57852C2.74842 7.71294 2.68907 7.76786 2.54637 7.7565C2.40368 7.74513 2.24741 7.75335 2.06714 7.75335C2.18364 7.89345 2.30928 7.96951 2.4283 8.04651C2.55995 8.13171 2.59846 8.21249 2.53438 8.36586C2.47755 8.50219 2.41852 8.64387 2.40052 8.81933C2.53122 8.72466 2.65308 8.64766 2.75631 8.55425C2.87818 8.44601 2.9773 8.43402 3.10359 8.5511C3.21394 8.65618 3.34019 8.74318 3.47769 8.80891H3.47674ZM13.2028 6.15815L13.2382 6.13764C13.1867 5.97449 13.1435 5.80882 13.0804 5.64915C13.0488 5.56521 13.0599 5.51945 13.1349 5.46801C13.2752 5.37334 13.4067 5.26384 13.5422 5.16064L13.5286 5.12088C13.3686 5.12088 13.2082 5.11583 13.0481 5.12088C12.9496 5.1253 12.9004 5.09691 12.8688 4.99466C12.8211 4.84129 12.794 4.67909 12.6914 4.5049C12.6393 4.66931 12.59 4.80532 12.5534 4.94449C12.5197 5.07418 12.4587 5.13572 12.3128 5.12183C12.1636 5.10763 12.0117 5.11868 11.8611 5.11868C11.9857 5.24958 12.1246 5.36603 12.2753 5.4658C12.3507 5.5166 12.3637 5.56237 12.3328 5.64536C12.2715 5.80945 12.222 5.97765 12.1676 6.14427C12.325 6.06491 12.4732 5.96862 12.6096 5.8571C12.681 5.79968 12.7299 5.80378 12.799 5.8571C12.9319 5.96661 13.0693 6.06096 13.2038 6.15942L13.2028 6.15815ZM2.81219 5.12057L2.80461 5.15212C2.94574 5.25847 3.08464 5.36861 3.22955 5.4699C3.29679 5.5166 3.31384 5.55858 3.28416 5.6381C3.22102 5.80504 3.17304 5.97639 3.1099 6.17456C3.29269 6.08179 3.42213 5.96755 3.55629 5.86246C3.63333 5.8022 3.68258 5.8063 3.75614 5.8653C3.88778 5.97102 4.02827 6.06569 4.16497 6.16509C4.14162 5.99574 4.09861 5.82968 4.03679 5.67028C4.00018 5.57309 4.00996 5.5125 4.10435 5.45286C4.24326 5.36388 4.3708 5.2569 4.50308 5.15749C4.34554 5.12349 4.18387 5.11276 4.02322 5.12562C3.90231 5.13446 3.84643 5.09407 3.81422 4.97668C3.77413 4.82994 3.7413 4.67815 3.64627 4.51532C3.58913 4.68667 3.53262 4.82615 3.49695 4.97068C3.46822 5.08744 3.41581 5.13414 3.29205 5.12562C3.13294 5.11363 2.97257 5.12183 2.81314 5.12183L2.81219 5.12057ZM2.81219 10.3643L2.79451 10.3978C2.93911 10.5063 3.08117 10.6187 3.22955 10.7216C3.2971 10.7689 3.31321 10.8143 3.28353 10.892C3.23113 11.0286 3.18882 11.1697 3.14274 11.3082C3.13484 11.3313 3.11337 11.3495 3.14274 11.3754C3.17209 11.4013 3.19166 11.3754 3.20808 11.3625C3.32079 11.2861 3.4357 11.2126 3.54051 11.1268C3.62006 11.0614 3.67753 11.0434 3.76497 11.1208C3.88588 11.2274 4.0229 11.3161 4.17034 11.4256C4.16402 11.2296 4.08857 11.0744 4.03521 10.9147C4.00365 10.8222 4.0128 10.7663 4.10024 10.7086C4.2401 10.6161 4.36859 10.5066 4.50182 10.4044L4.48446 10.3643C4.32377 10.3643 4.16276 10.3571 4.0027 10.3669C3.8941 10.3732 3.84485 10.3372 3.81328 10.2322C3.77034 10.0816 3.73941 9.9241 3.64406 9.75877C3.58314 9.94592 3.52915 10.098 3.48621 10.2532C3.46222 10.3368 3.42308 10.3722 3.33215 10.3682C3.1601 10.3605 2.98678 10.3656 2.81408 10.3656L2.81219 10.3643ZM5.57646 2.63296L5.53857 2.62981C5.49438 2.76834 5.44387 2.90561 5.40756 3.04635C5.37599 3.16943 5.31885 3.22875 5.18058 3.21581C5.02841 3.20161 4.87371 3.21266 4.72028 3.21266C4.83356 3.34175 4.96401 3.45472 5.10796 3.54842C5.20046 3.60964 5.21435 3.67464 5.17742 3.77216C5.11932 3.92647 5.07261 4.0852 5.01199 4.27012C5.15134 4.19822 5.28081 4.10858 5.39715 4.00347C5.50985 3.90879 5.59698 3.89586 5.71569 4.00126C5.82904 4.11021 5.95986 4.19939 6.10273 4.26507C6.04559 4.08772 6.00581 3.93593 5.94741 3.79172C5.89942 3.67464 5.92025 3.60554 6.02728 3.53359C6.15767 3.4465 6.2931 3.36002 6.42222 3.21297C6.22144 3.21297 6.05538 3.20824 5.88964 3.21487C5.79492 3.21865 5.74883 3.18741 5.72389 3.09401C5.6838 2.94064 5.62824 2.79043 5.57836 2.63517L5.57646 2.63296ZM7.34438 12.9729L7.3286 13.0116C7.45708 13.1082 7.58115 13.2123 7.71533 13.2985C7.82172 13.3666 7.83056 13.4376 7.7873 13.5475C7.72858 13.6958 7.68754 13.8513 7.63893 14.0038C7.77865 13.9384 7.90886 13.8545 8.02598 13.7541C8.12953 13.6636 8.2094 13.6513 8.318 13.7494C8.4266 13.8475 8.55478 13.9233 8.69999 14.0274C8.67695 13.8207 8.60529 13.6677 8.55257 13.5118C8.52099 13.4171 8.53772 13.3698 8.6135 13.3165C8.75208 13.2189 8.885 13.1132 9.02011 13.0113L9.00843 12.9722C8.83859 12.9722 8.66874 12.9684 8.4989 12.9741C8.4105 12.9769 8.37261 12.9425 8.34357 12.8595C8.29022 12.7018 8.26527 12.5323 8.16551 12.3625C8.10616 12.5414 8.04965 12.6929 8.00766 12.8485C7.9802 12.9482 7.92779 12.9792 7.82835 12.9747C7.66766 12.9697 7.50633 12.975 7.34533 12.975L7.34438 12.9729ZM9.96216 12.2767L9.95017 12.3082C10.0692 12.3979 10.1806 12.5001 10.3088 12.5739C10.4575 12.6594 10.4774 12.7579 10.4114 12.9065C10.3552 13.0328 10.3211 13.1691 10.2769 13.301C10.3353 13.3244 10.3638 13.2862 10.3966 13.2647C10.5402 13.17 10.6668 12.9788 10.8183 12.992C10.9699 13.0053 11.1176 13.1665 11.2433 13.2928C11.2513 13.303 11.2624 13.3103 11.275 13.3135C11.2876 13.3166 11.3009 13.3154 11.3127 13.3102C11.3443 13.2953 11.3218 13.272 11.3184 13.247C11.3015 13.1279 11.2672 13.0119 11.2164 12.9028C11.1458 12.7507 11.1811 12.6585 11.3213 12.5711C11.4554 12.4945 11.5756 12.3958 11.677 12.2792C11.4677 12.2792 11.3013 12.2742 11.1353 12.2811C11.046 12.2849 11.0052 12.2546 10.9815 12.1684C10.9377 12.0087 10.8815 11.8529 10.8218 11.6689C10.7271 11.8384 10.6955 11.9971 10.6475 12.1495C10.6175 12.2476 10.5765 12.2846 10.4743 12.2795C10.305 12.2728 10.1352 12.2789 9.96311 12.2789L9.96216 12.2767ZM14.2604 7.81551L14.2576 7.76502C14.1032 7.76502 13.9479 7.75587 13.7942 7.76786C13.6707 7.77732 13.6139 7.72936 13.5842 7.61544C13.5457 7.4687 13.5078 7.32038 13.4298 7.16955C13.3452 7.31754 13.3124 7.46176 13.2752 7.60124C13.2404 7.73157 13.1823 7.77953 13.0472 7.76786C12.8975 7.75524 12.7457 7.76502 12.5948 7.76502L12.5907 7.81077C12.728 7.91334 12.8641 8.01873 13.0039 8.11814C13.069 8.16452 13.0879 8.2087 13.0569 8.28854C12.9938 8.44632 12.9455 8.61263 12.8818 8.80197C13.0636 8.73413 13.1826 8.62242 13.3083 8.52522C13.396 8.45768 13.4573 8.44475 13.5479 8.52269C13.6723 8.62967 13.8118 8.71929 13.9832 8.84425C13.9169 8.63977 13.8737 8.47851 13.8118 8.32515C13.7689 8.21848 13.7913 8.15601 13.8841 8.09415C14.0148 8.0099 14.1364 7.91113 14.2614 7.81772L14.2604 7.81551ZM5.04672 13.3379C5.21151 13.2174 5.35295 13.1202 5.4868 13.0139C5.55721 12.958 5.60677 12.9589 5.67622 13.0157C5.80913 13.1224 5.9512 13.2184 6.11315 13.336C6.08158 13.1385 6.01591 12.9851 5.96224 12.8292C5.92816 12.7305 5.93794 12.6657 6.03138 12.6039C6.16808 12.5136 6.29499 12.4079 6.42601 12.3086C6.28003 12.2738 6.12935 12.2631 5.97993 12.277C5.82208 12.2944 5.75893 12.2306 5.72295 12.0848C5.69436 11.942 5.64602 11.8039 5.5793 11.6746C5.49658 11.8361 5.45681 11.9926 5.41293 12.146C5.38546 12.2429 5.3419 12.2823 5.23803 12.277C5.07008 12.2685 4.90149 12.2748 4.73291 12.2748C4.83825 12.3932 4.96009 12.4959 5.0947 12.5796C5.22793 12.6578 5.23961 12.7456 5.18373 12.8769C5.11963 13.0249 5.07392 13.1801 5.04766 13.3392L5.04672 13.3379ZM10.8142 2.5588C10.7489 2.7513 10.688 2.90056 10.6488 3.05519C10.6204 3.16911 10.5677 3.20729 10.4522 3.19971C10.2942 3.18962 10.1364 3.19719 9.97858 3.19719C10.0877 3.3213 10.2129 3.43029 10.3508 3.52129C10.4408 3.58218 10.4771 3.63678 10.4287 3.75164C10.364 3.90343 10.3265 4.06721 10.2627 4.27201C10.4364 4.14579 10.5753 4.05332 10.7028 3.94729C10.7802 3.88418 10.8291 3.87756 10.9147 3.94193C11.0431 4.03944 11.1647 4.15336 11.3544 4.23983C11.2913 4.04228 11.2424 3.88387 11.1874 3.72766C11.159 3.64719 11.1703 3.59417 11.2455 3.54242C11.3863 3.44555 11.5192 3.33668 11.6559 3.23285C11.4942 3.20106 11.3289 3.19045 11.1644 3.20129C11.0573 3.20666 11.0024 3.17227 10.9749 3.06529C10.9358 2.90908 10.8789 2.75698 10.8151 2.56006L10.8142 2.5588ZM12.1955 11.4404C12.2882 11.3754 12.3561 11.329 12.4224 11.2808C12.7302 11.057 12.7299 11.0574 13.0427 11.2877C13.1059 11.3347 13.1741 11.3763 13.2745 11.4436C13.2114 11.2473 13.1779 11.0984 13.1185 10.9601C13.0636 10.832 13.1021 10.7648 13.2082 10.6906C13.3278 10.6067 13.4607 10.5329 13.571 10.3813C13.3865 10.3813 13.2309 10.3735 13.0769 10.3843C12.967 10.3918 12.919 10.3526 12.8874 10.2497C12.843 10.0983 12.8088 9.94084 12.716 9.76697C12.6586 9.94113 12.6021 10.0803 12.5679 10.2245C12.5379 10.3508 12.4764 10.394 12.3489 10.3848C12.196 10.3738 12.042 10.382 11.8883 10.382C11.9929 10.5053 12.116 10.6118 12.2532 10.6976C12.3744 10.7705 12.381 10.8519 12.3356 10.9696C12.2819 11.1126 12.2251 11.2568 12.1964 11.4417L12.1955 11.4404Z" fill="#0153BF"/>
<path d="M7.6434 3.56792C7.69865 3.39341 7.74853 3.2167 7.81104 3.04471C7.84261 2.95604 7.83029 2.90271 7.75074 2.84842C7.60125 2.74858 7.46358 2.63214 7.34033 2.5013C7.51112 2.5013 7.68192 2.49562 7.85208 2.50319C7.94837 2.50761 7.99509 2.47164 8.02098 2.38233C8.06581 2.22707 8.11822 2.07402 8.17883 1.88721C8.27196 2.06266 8.3051 2.22549 8.35309 2.38264C8.38025 2.47448 8.42349 2.50698 8.51883 2.50288C8.68457 2.4953 8.85126 2.50067 9.01733 2.50067C9.02364 2.51456 9.02964 2.52844 9.03595 2.54201C8.90968 2.63668 8.79033 2.73955 8.65869 2.82602C8.55135 2.89481 8.53241 2.9655 8.57692 3.08384C8.63312 3.23121 8.69532 3.38016 8.71678 3.57297C8.55325 3.45148 8.41686 3.35207 8.28396 3.24982C8.21766 3.1987 8.16589 3.19303 8.09453 3.24982C7.94963 3.36122 7.81041 3.48397 7.6453 3.56539L7.6434 3.56792Z" fill="#F2F306"/>
<path d="M3.47782 8.80956C3.34095 8.74398 3.21524 8.65731 3.10529 8.55269C2.97902 8.43562 2.87894 8.44761 2.75803 8.55585C2.65322 8.65052 2.53293 8.72499 2.40223 8.82093C2.42022 8.64547 2.47926 8.50536 2.53608 8.36745C2.59923 8.21409 2.56166 8.1333 2.43001 8.0481C2.31099 7.9711 2.18535 7.89505 2.06885 7.75495C2.24912 7.75495 2.39971 7.74453 2.54809 7.7581C2.69646 7.77167 2.75108 7.71234 2.78549 7.58012C2.8199 7.4479 2.85052 7.30652 2.93324 7.16357C3.01658 7.31946 3.05226 7.47345 3.09456 7.62398C3.12139 7.71866 3.16528 7.76378 3.26977 7.75715C3.40553 7.74894 3.54222 7.75495 3.67861 7.75715C3.70765 7.75715 3.74932 7.74863 3.75311 7.7906C3.755 7.80922 3.73007 7.83541 3.7108 7.85024C3.60725 7.93039 3.50782 8.01812 3.39511 8.08345C3.2824 8.14877 3.28082 8.22198 3.3206 8.32801C3.37585 8.47696 3.42005 8.63127 3.47782 8.80956Z" fill="#F2F306"/>
<path d="M13.204 6.15989C13.0696 6.06143 12.9322 5.96707 12.8022 5.86294C12.7331 5.80803 12.6841 5.80393 12.6128 5.86294C12.4763 5.97446 12.3282 6.07075 12.1708 6.1501C12.2251 5.98349 12.2746 5.81529 12.3359 5.65119C12.3675 5.5682 12.3539 5.52244 12.2784 5.47164C12.1277 5.37187 11.9888 5.25542 11.8643 5.12451C12.0148 5.12451 12.1667 5.11347 12.316 5.12767C12.4603 5.14155 12.5228 5.08002 12.5565 4.95032C12.5932 4.81116 12.6424 4.67514 12.6945 4.51074C12.7971 4.68493 12.8243 4.84713 12.8719 5.0005C12.9035 5.10211 12.9528 5.13051 13.0513 5.12672C13.2114 5.1201 13.3717 5.12672 13.5317 5.12672L13.5454 5.16649C13.4099 5.26968 13.2782 5.37791 13.1381 5.47385C13.0629 5.52528 13.0519 5.57104 13.0834 5.65498C13.1437 5.81466 13.1886 5.98033 13.2413 6.14348L13.204 6.15989Z" fill="#F2F306"/>
<path d="M2.81311 5.12163C2.97096 5.12163 3.13292 5.11342 3.29203 5.12447C3.41579 5.13299 3.4682 5.08629 3.49692 4.96953C3.5326 4.825 3.58911 4.68551 3.64625 4.51416C3.74096 4.67699 3.7741 4.82973 3.8142 4.97552C3.84577 5.09291 3.90228 5.1333 4.02319 5.12447C4.18426 5.11213 4.34625 5.12351 4.504 5.15823C4.37172 5.25764 4.24418 5.36462 4.10527 5.4536C4.01057 5.51388 4.0011 5.57383 4.03771 5.67103C4.09953 5.83042 4.14254 5.99648 4.16589 6.16583C4.02919 6.06644 3.8887 5.97176 3.75706 5.86605C3.68414 5.80704 3.63425 5.80294 3.55722 5.8632C3.42305 5.96829 3.29361 6.08253 3.11082 6.1753C3.17396 5.97807 3.22321 5.80672 3.28508 5.63884C3.31476 5.55932 3.29771 5.51735 3.23047 5.47064C3.08556 5.36935 2.94634 5.25921 2.80554 5.15286L2.81311 5.12163Z" fill="#F2F306"/>
<path d="M2.81434 10.3655C2.98704 10.3655 3.16162 10.3604 3.33304 10.3677C3.42428 10.3718 3.46311 10.3361 3.4871 10.2528C3.53162 10.0975 3.5856 9.94541 3.64495 9.7583C3.73967 9.92519 3.77123 10.0827 3.81417 10.2316C3.84416 10.3367 3.89373 10.3727 4.00359 10.3664C4.16365 10.3567 4.32466 10.3639 4.48535 10.3639L4.50271 10.404C4.36948 10.5062 4.24099 10.6157 4.10113 10.7082C4.01369 10.7659 4.00485 10.8218 4.0361 10.9143C4.08946 11.0739 4.16491 11.2297 4.17123 11.4251C4.02379 11.3156 3.88709 11.2269 3.76586 11.1203C3.67842 11.0429 3.62096 11.061 3.5414 11.1263C3.43659 11.2121 3.32042 11.284 3.20897 11.362C3.19255 11.3734 3.17424 11.403 3.14363 11.375C3.113 11.3468 3.13667 11.3308 3.14363 11.3077C3.19066 11.1692 3.23202 11.0282 3.28442 10.8915C3.3141 10.8139 3.298 10.7685 3.23044 10.721C3.08206 10.6176 2.94 10.5058 2.79541 10.3973L2.81434 10.3655Z" fill="#F2F306"/>
<path d="M5.57871 2.63516C5.62859 2.78884 5.68447 2.94063 5.72614 3.09652C5.75109 3.1912 5.7975 3.22275 5.89189 3.21739C6.05763 3.21076 6.22369 3.21549 6.42447 3.21549C6.29536 3.36255 6.15992 3.44901 6.02954 3.53611C5.92251 3.60806 5.90167 3.67717 5.94966 3.79425C6.00806 3.93815 6.04784 4.08994 6.10498 4.2676C5.96212 4.20192 5.83128 4.11274 5.71794 4.00378C5.59924 3.89838 5.5121 3.91164 5.3994 4.00599C5.28306 4.11111 5.1536 4.20074 5.01424 4.27264C5.07486 4.08773 5.12158 3.92899 5.17967 3.77468C5.21661 3.67591 5.20271 3.61216 5.11022 3.55094C4.96626 3.45724 4.83582 3.34427 4.72253 3.21518C4.87596 3.21518 5.03066 3.20414 5.18283 3.21833C5.32111 3.23128 5.37793 3.17194 5.40981 3.04887C5.44612 2.90813 5.49663 2.77086 5.54083 2.63232L5.57871 2.63516Z" fill="#F2F306"/>
<path d="M7.34478 12.975C7.50579 12.975 7.66711 12.9697 7.82812 12.9769C7.92757 12.9813 7.97997 12.9504 8.00744 12.8507C8.05006 12.6951 8.10657 12.5437 8.1653 12.3647C8.26505 12.5345 8.28999 12.7039 8.34335 12.8618C8.37207 12.946 8.41027 12.9792 8.49867 12.9763C8.66852 12.9706 8.83836 12.9744 9.00821 12.9744L9.0199 13.0135C8.88477 13.1155 8.75187 13.2212 8.61327 13.3187C8.5375 13.3721 8.52077 13.4206 8.55234 13.514C8.60538 13.67 8.67672 13.823 8.69977 14.0297C8.55455 13.9255 8.42606 13.8494 8.31777 13.7516C8.20949 13.6538 8.12836 13.6658 8.02575 13.7564C7.90863 13.8567 7.77842 13.9407 7.63871 14.0059C7.68733 13.8536 7.72836 13.698 7.78708 13.5497C7.83033 13.4399 7.82149 13.3689 7.7151 13.3007C7.57999 13.2145 7.45686 13.1113 7.32837 13.0139L7.34478 12.975Z" fill="#F2F306"/>
<path d="M9.96292 12.2787C10.1337 12.2787 10.3048 12.2727 10.475 12.2806C10.5773 12.2856 10.6183 12.249 10.6483 12.1505C10.6947 11.9981 10.7288 11.8394 10.8226 11.6699C10.8822 11.8536 10.9385 12.0098 10.9823 12.1695C11.006 12.2556 11.0455 12.2859 11.1361 12.2821C11.3021 12.2752 11.4685 12.2802 11.6778 12.2802C11.5765 12.397 11.4562 12.4959 11.322 12.5727C11.1819 12.6602 11.1465 12.7523 11.2172 12.9044C11.2679 13.0136 11.3023 13.1296 11.3192 13.2487C11.3227 13.273 11.3448 13.2964 11.3135 13.3118C11.3016 13.317 11.2884 13.3183 11.2757 13.3151C11.2631 13.312 11.252 13.3047 11.244 13.2945C11.1177 13.1682 10.9754 13.0073 10.8191 12.9938C10.6629 12.9801 10.541 13.1729 10.3973 13.2664C10.3657 13.2878 10.3361 13.326 10.2777 13.3027C10.3219 13.1708 10.3559 13.0344 10.4122 12.9083C10.4781 12.7595 10.4583 12.6612 10.3096 12.5756C10.1814 12.5017 10.0699 12.3995 9.95093 12.3099L9.96292 12.2787Z" fill="#F2F306"/>
<path d="M14.2614 7.81784C14.1352 7.91251 14.0149 8.01002 13.8851 8.09648C13.7923 8.1596 13.7699 8.22081 13.8128 8.32748C13.876 8.48084 13.9179 8.64304 13.9842 8.84658C13.8128 8.72036 13.6733 8.632 13.5489 8.52502C13.4582 8.44708 13.397 8.46001 13.3092 8.52755C13.183 8.62475 13.0646 8.73645 12.8828 8.8043C12.9459 8.61495 12.9958 8.45023 13.058 8.29087C13.0895 8.21103 13.07 8.16686 13.005 8.12047C12.8651 8.02106 12.729 7.91567 12.5917 7.81311L12.5958 7.76735C12.7467 7.76735 12.8986 7.75756 13.0482 7.77019C13.1833 7.78186 13.2414 7.7339 13.2761 7.60357C13.3134 7.46409 13.3462 7.31955 13.4308 7.17188C13.5088 7.32271 13.5467 7.47103 13.5852 7.61777C13.6148 7.73169 13.6717 7.77966 13.7952 7.77019C13.9488 7.7582 14.1042 7.76735 14.2586 7.76735L14.2614 7.81784Z" fill="#F2F306"/>
<path d="M5.04757 13.3397C5.0747 13.1808 5.12124 13.0257 5.18617 12.8781C5.24205 12.7468 5.23036 12.659 5.09714 12.5808C4.96253 12.497 4.84069 12.3944 4.73535 12.276C4.9033 12.276 5.07188 12.2696 5.24047 12.2782C5.34434 12.2835 5.38789 12.2441 5.41537 12.1472C5.45925 11.9938 5.49902 11.8373 5.58174 11.6758C5.64846 11.8051 5.6968 11.9432 5.72539 12.086C5.76074 12.2318 5.82515 12.2956 5.98237 12.2782C6.13179 12.2642 6.28247 12.275 6.42845 12.3098C6.29743 12.4091 6.17052 12.5148 6.03382 12.6051C5.93911 12.6682 5.93059 12.7314 5.96468 12.8304C6.01835 12.9863 6.08528 13.1397 6.11559 13.3372C5.95363 13.2195 5.81156 13.1236 5.67866 13.0169C5.60826 12.9601 5.5587 12.9592 5.48924 13.015C5.35381 13.122 5.21237 13.2192 5.04757 13.3397Z" fill="#F2F306"/>
<path d="M10.8147 2.55957C10.8778 2.75648 10.9353 2.90858 10.9758 3.06447C11.0038 3.17145 11.0587 3.20585 11.1651 3.20048C11.3297 3.18964 11.4949 3.20025 11.6567 3.23204C11.5203 3.33586 11.3874 3.44473 11.2463 3.54161C11.1711 3.59336 11.1597 3.64638 11.1881 3.72685C11.2431 3.88463 11.2911 4.04242 11.3552 4.23902C11.1658 4.15255 11.044 4.03863 10.9154 3.94112C10.8308 3.87801 10.781 3.88243 10.7036 3.94648C10.5773 4.05251 10.4371 4.14434 10.2635 4.2712C10.3267 4.06608 10.3649 3.90261 10.4296 3.75083C10.4789 3.63597 10.4415 3.58137 10.3516 3.52047C10.2136 3.42948 10.0885 3.32049 9.97937 3.19638C10.1372 3.19638 10.2951 3.18881 10.4529 3.1989C10.5685 3.20648 10.6212 3.16735 10.6496 3.05438C10.6884 2.90133 10.7494 2.75206 10.8147 2.55957Z" fill="#F2F306"/>
<path d="M12.1967 11.4416C12.2255 11.2567 12.2833 11.1124 12.3382 10.9682C12.3836 10.8506 12.3771 10.7691 12.2558 10.6962C12.1186 10.6104 11.9956 10.504 11.8909 10.3807C12.0447 10.3807 12.1986 10.3724 12.3515 10.3835C12.4778 10.3927 12.5409 10.3491 12.5705 10.2232C12.6047 10.079 12.6612 9.93918 12.7186 9.76562C12.8114 9.93946 12.8449 10.0969 12.8901 10.2485C12.9217 10.3519 12.9683 10.3904 13.0795 10.3829C13.2336 10.3721 13.3891 10.3801 13.5736 10.3801C13.4649 10.5331 13.3304 10.6053 13.2108 10.6893C13.1047 10.7634 13.0662 10.8307 13.1212 10.9588C13.1805 11.097 13.2159 11.246 13.2771 11.4422C13.1767 11.375 13.1091 11.3334 13.0453 11.2863C12.7325 11.056 12.7329 11.0557 12.425 11.2794C12.3575 11.3302 12.2896 11.3765 12.1967 11.4416Z" fill="#F2F306"/>
<path d="M7.64075 3.5621L7.64981 3.55908L7.64243 3.56847L7.64075 3.5621Z" fill="#F2F306"/>
</g>
<defs>
<clipPath id="clip0_1_173">
<rect width="15.99" height="15.05" fill="white" transform="translate(0.693848 0.46875)"/>
</clipPath>
</defs>
</svg>
