<svg width="160" height="30" viewBox="0 0 160 30" fill="none" xmlns="http://www.w3.org/2000/svg">
<g clip-path="url(#clip0_1_92)">
<path fill-rule="evenodd" clip-rule="evenodd" d="M16.7051 0.780032C16.3599 -0.178201 14.9982 -0.159437 14.6796 0.807949L12.166 8.43675C12.0213 8.87608 11.6109 9.17292 11.1484 9.17292H2.84131C1.84464 9.17292 1.38791 10.4146 2.14701 11.0605L9.20653 17.0671C9.53389 17.3456 9.66313 17.7928 9.53478 18.2031L6.96016 26.4325C6.65381 27.4116 7.76611 28.2199 8.60277 27.6262L15.3793 22.8171C15.7638 22.5443 16.2811 22.5547 16.6542 22.8428L23.2861 27.9643C24.1103 28.6008 25.2663 27.8061 24.9673 26.8086L22.3698 18.1396C22.245 17.7234 22.384 17.2731 22.7216 16.9995L30.0307 11.0769C30.815 10.4414 30.3656 9.17292 29.3561 9.17292H20.482C20.0303 9.17292 19.6272 8.88963 19.474 8.46467L16.7051 0.780032Z" fill="#111111"/>
</g>
<g clip-path="url(#clip1_1_92)">
<path fill-rule="evenodd" clip-rule="evenodd" d="M48.7051 0.780032C48.3599 -0.178201 46.9982 -0.159437 46.6796 0.807949L44.166 8.43675C44.0213 8.87608 43.6109 9.17292 43.1484 9.17292H34.8413C33.8446 9.17292 33.3879 10.4146 34.147 11.0605L41.2065 17.0671C41.5339 17.3456 41.6631 17.7928 41.5348 18.2031L38.9602 26.4325C38.6538 27.4116 39.7661 28.2199 40.6028 27.6262L47.3793 22.8171C47.7638 22.5443 48.2811 22.5547 48.6542 22.8428L55.2861 27.9643C56.1103 28.6008 57.2663 27.8061 56.9673 26.8086L54.3698 18.1396C54.245 17.7234 54.384 17.2731 54.7216 16.9995L62.0307 11.0769C62.815 10.4414 62.3656 9.17292 61.3561 9.17292H52.482C52.0303 9.17292 51.6272 8.88963 51.474 8.46467L48.7051 0.780032Z" fill="#111111"/>
</g>
<g clip-path="url(#clip2_1_92)">
<path fill-rule="evenodd" clip-rule="evenodd" d="M80.7051 0.780032C80.3599 -0.178201 78.9982 -0.159437 78.6796 0.807949L76.166 8.43675C76.0213 8.87608 75.6109 9.17292 75.1484 9.17292H66.8413C65.8446 9.17292 65.3879 10.4146 66.147 11.0605L73.2065 17.0671C73.5339 17.3456 73.6631 17.7928 73.5348 18.2031L70.9602 26.4325C70.6538 27.4116 71.7661 28.2199 72.6028 27.6262L79.3793 22.8171C79.7638 22.5443 80.2811 22.5547 80.6542 22.8428L87.2861 27.9643C88.1103 28.6008 89.2663 27.8061 88.9673 26.8086L86.3698 18.1396C86.245 17.7234 86.384 17.2731 86.7216 16.9995L94.0307 11.0769C94.815 10.4414 94.3656 9.17292 93.3561 9.17292H84.482C84.0303 9.17292 83.6272 8.88963 83.474 8.46467L80.7051 0.780032Z" fill="#111111"/>
</g>
<g clip-path="url(#clip3_1_92)">
<path fill-rule="evenodd" clip-rule="evenodd" d="M112.705 0.780032C112.36 -0.178201 110.998 -0.159437 110.68 0.807949L108.166 8.43675C108.021 8.87608 107.611 9.17292 107.148 9.17292H98.8413C97.8446 9.17292 97.3879 10.4146 98.147 11.0605L105.206 17.0671C105.534 17.3456 105.663 17.7928 105.535 18.2031L102.96 26.4325C102.654 27.4116 103.766 28.2199 104.603 27.6262L111.379 22.8171C111.764 22.5443 112.281 22.5547 112.654 22.8428L119.286 27.9643C120.11 28.6008 121.266 27.8061 120.967 26.8086L118.37 18.1396C118.245 17.7234 118.384 17.2731 118.722 16.9995L126.031 11.0769C126.815 10.4414 126.366 9.17292 125.356 9.17292H116.482C116.03 9.17292 115.627 8.88963 115.474 8.46467L112.705 0.780032Z" fill="#111111"/>
</g>
<path fill-rule="evenodd" clip-rule="evenodd" d="M144.301 2.64082C143.99 1.77514 142.76 1.79209 142.472 2.66605L140.202 9.55808C140.071 9.95497 139.7 10.2231 139.282 10.2231H131.779C130.879 10.2231 130.467 11.3449 131.152 11.9284L137.528 17.3549C137.824 17.6065 137.941 18.0106 137.825 18.3812L135.5 25.8158C135.223 26.7004 136.227 27.4307 136.983 26.8943L143.104 22.5496C143.451 22.3032 143.919 22.3125 144.255 22.5728L150.246 27.1997C150.99 27.7747 152.034 27.0568 151.764 26.1556L149.418 18.3238C149.305 17.9478 149.431 17.541 149.736 17.2939L156.337 11.9432C157.046 11.3691 156.64 10.2231 155.728 10.2231H147.713C147.305 10.2231 146.941 9.96726 146.802 9.5833L144.301 2.64082Z" fill="#111111"/>
<mask id="mask0_1_92" style="mask-type:alpha" maskUnits="userSpaceOnUse" x="130" y="2" width="27" height="26">
<path fill-rule="evenodd" clip-rule="evenodd" d="M144.301 2.64082C143.99 1.77514 142.76 1.79209 142.472 2.66605L140.202 9.55808C140.071 9.95497 139.7 10.2231 139.282 10.2231H131.779C130.879 10.2231 130.467 11.3449 131.152 11.9284L137.528 17.3549C137.824 17.6065 137.941 18.0106 137.825 18.3812L135.5 25.8158C135.223 26.7004 136.227 27.4307 136.983 26.8943L143.104 22.5496C143.451 22.3032 143.919 22.3125 144.255 22.5728L150.246 27.1997C150.99 27.7747 152.034 27.0568 151.764 26.1556L149.418 18.3238C149.305 17.9478 149.431 17.541 149.736 17.2939L156.337 11.9432C157.046 11.3691 156.64 10.2231 155.728 10.2231H147.713C147.305 10.2231 146.941 9.96726 146.802 9.5833L144.301 2.64082Z" fill="white"/>
</mask>
<g mask="url(#mask0_1_92)">
<path d="M166.285 1.45068H149.168C148.634 1.45068 148.201 1.88407 148.201 2.41868V28.0707C148.201 28.6053 148.634 29.0387 149.168 29.0387H166.285C166.82 29.0387 167.253 28.6053 167.253 28.0707V2.41868C167.253 1.88407 166.82 1.45068 166.285 1.45068Z" fill="#D5D8E3"/>
</g>
<defs>
<clipPath id="clip0_1_92">
<rect width="30" height="28.93" fill="white" transform="translate(1)"/>
</clipPath>
<clipPath id="clip1_1_92">
<rect width="30" height="28.93" fill="white" transform="translate(33)"/>
</clipPath>
<clipPath id="clip2_1_92">
<rect width="30" height="28.93" fill="white" transform="translate(65)"/>
</clipPath>
<clipPath id="clip3_1_92">
<rect width="30" height="28.93" fill="white" transform="translate(97)"/>
</clipPath>
</defs>
</svg>
