<svg width="21" height="20" viewBox="0 0 21 20" fill="none" xmlns="http://www.w3.org/2000/svg">
<g clip-path="url(#clip0_1_771)">
<path fill-rule="evenodd" clip-rule="evenodd" d="M11.0974 0.8796C10.8673 0.240667 9.95949 0.253179 9.74706 0.898215L8.07134 5.98496C7.97484 6.2779 7.7013 6.47583 7.39294 6.47583H1.85488C1.19043 6.47583 0.885949 7.30375 1.39201 7.73443L6.09836 11.7395C6.3166 11.9252 6.40276 12.2234 6.31719 12.497L4.60078 17.9842C4.39655 18.6371 5.13808 19.176 5.69585 18.7802L10.2136 15.5735C10.4698 15.3916 10.8148 15.3986 11.0635 15.5907L15.4848 19.0056C16.0342 19.43 16.8048 18.9001 16.6056 18.235L14.8738 12.4546C14.7907 12.1771 14.8833 11.8768 15.1084 11.6945L19.9811 7.74536C20.504 7.3216 20.2044 6.47583 19.5314 6.47583H13.6153C13.3142 6.47583 13.0455 6.28693 12.9433 6.00358L11.0974 0.8796Z" fill="#111111"/>
</g>
<defs>
<clipPath id="clip0_1_771">
<rect width="20" height="19.29" fill="white" transform="translate(0.627319 0.359375)"/>
</clipPath>
</defs>
</svg>
