<svg width="28" height="36" viewBox="0 0 28 36" fill="none" xmlns="http://www.w3.org/2000/svg">
<path d="M25.0862 2.21575L26.7659 3.22359C26.8248 3.25886 26.8607 3.32237 26.8607 3.39091V5.07956C26.8607 5.14997 26.8228 5.21492 26.7615 5.2495L3.64614 18.289C3.5838 18.3241 3.50731 18.3223 3.44663 18.2844L0.854979 16.6611C0.798013 16.6255 0.763428 16.5629 0.763428 16.4957V15.2088C0.763428 15.1645 0.778511 15.1215 0.806189 15.0869L12.0148 1.07615C12.0558 1.02488 12.1199 0.997677 12.1853 1.00377L25.0451 2.20226C25.0597 2.20362 25.0737 2.20822 25.0862 2.21575Z" fill="#1D1D1B"/>
<path d="M25.0862 2.21575L26.7659 3.22359C26.8248 3.25886 26.8607 3.32237 26.8607 3.39091V5.07956C26.8607 5.14997 26.8228 5.21492 26.7615 5.2495L3.64614 18.289C3.5838 18.3241 3.50731 18.3224 3.44663 18.2844L0.854979 16.6611C0.798013 16.6255 0.763428 16.5629 0.763428 16.4957V15.2088C0.763428 15.1645 0.778511 15.1215 0.806189 15.0869L12.0148 1.07615C12.0558 1.02488 12.1199 0.997677 12.1853 1.00377L25.0451 2.20226C25.0597 2.20362 25.0738 2.20822 25.0862 2.21575Z" stroke="#1D1D1B" stroke-width="0.8" stroke-linejoin="round"/>
<path d="M1.5554 29.7232C1.22877 29.5347 1.22877 29.2289 1.5554 29.0403L22.3069 17.0594C22.4002 17.0056 22.5515 17.0056 22.6449 17.0594L26.3997 19.2273C26.7263 19.4159 26.7263 19.7217 26.3997 19.9103L5.64818 31.891C5.55481 31.945 5.4036 31.945 5.31023 31.891L1.5554 29.7232Z" fill="#D5C8FB"/>
<path d="M1.5554 29.7232C1.22877 29.5347 1.22877 29.2289 1.5554 29.0403L22.3069 17.0594C22.4002 17.0056 22.5515 17.0056 22.6449 17.0594L26.3997 19.2273C26.7263 19.4159 26.7263 19.7217 26.3997 19.9103L5.64818 31.891C5.55482 31.945 5.4036 31.945 5.31023 31.891L1.5554 29.7232Z" stroke="#1D1D1B" stroke-width="0.8" stroke-linejoin="round"/>
<path fill-rule="evenodd" clip-rule="evenodd" d="M23.8563 19.7573C23.8602 19.7552 23.8642 19.7529 23.868 19.7507C23.868 19.7507 23.8677 19.7182 23.8673 19.6637C23.8687 19.6364 23.8685 19.6091 23.8668 19.5818C23.8651 19.3318 23.8629 18.87 23.868 18.6548C23.8756 18.3401 23.6716 18.0242 23.2559 17.7842C22.4393 17.3128 21.1155 17.3128 20.2991 17.7842C19.8833 18.0242 19.6792 18.3401 19.6869 18.6548C19.692 18.87 19.6899 19.3318 19.6881 19.5818C19.6864 19.6091 19.6862 19.6364 19.6875 19.6637C19.6872 19.7182 19.6869 19.7507 19.6869 19.7507C19.6908 19.7529 19.6947 19.7552 19.6987 19.7573C19.7477 20.0218 19.9479 20.2787 20.2991 20.4814C21.1155 20.9528 22.4393 20.9528 23.2559 20.4814C23.6071 20.2787 23.8072 20.0218 23.8563 19.7573Z" fill="#D5C8FB"/>
<path fill-rule="evenodd" clip-rule="evenodd" d="M23.868 19.7479C23.876 20.0629 23.672 20.3792 23.2559 20.6194C22.4394 21.0909 21.1156 21.0909 20.2991 20.6194C19.8829 20.3792 19.6789 20.0629 19.6869 19.7479C19.6874 19.6975 19.6939 18.9477 19.6869 18.6548C19.6793 18.3401 19.8834 18.0242 20.2991 17.7842C21.1156 17.3128 22.4394 17.3128 23.2559 17.7842C23.6717 18.0242 23.8757 18.3401 23.868 18.6548C23.861 18.9477 23.8677 19.6975 23.868 19.7479Z" fill="#EFE9FE"/>
<mask id="mask0_1_501" style="mask-type:luminance" maskUnits="userSpaceOnUse" x="18" y="16" width="8" height="7">
<path d="M25.5403 16.4551H18.7111V22.3087H25.5403V16.4551Z" fill="white"/>
<path fill-rule="evenodd" clip-rule="evenodd" d="M23.868 19.7479C23.876 20.0629 23.672 20.3792 23.2559 20.6194C22.4394 21.0909 21.1156 21.0909 20.2991 20.6194C19.8829 20.3792 19.6789 20.0629 19.6869 19.7479C19.6874 19.6975 19.6939 18.9477 19.6869 18.6548C19.6793 18.3401 19.8834 18.0242 20.2991 17.7842C21.1156 17.3128 22.4394 17.3128 23.2559 17.7842C23.6717 18.0242 23.8757 18.3401 23.868 18.6548C23.861 18.9477 23.8677 19.6975 23.868 19.7479Z" fill="black"/>
</mask>
<g mask="url(#mask0_1_501)">
<path d="M23.868 19.7481H23.0876V19.7581L23.0878 19.768L23.868 19.7481ZM19.6869 19.7481L20.4672 19.768L20.4674 19.7552L19.6869 19.7481ZM23.868 19.7481H24.6486L24.6485 19.7411L23.868 19.7481ZM23.0878 19.768C23.0872 19.7426 23.0976 19.7411 23.0778 19.7698C23.0551 19.8029 22.9958 19.8685 22.8657 19.9437L23.6462 21.2956C24.2071 20.9717 24.6662 20.4308 24.6483 19.7283L23.0878 19.768ZM22.8657 19.9437C22.6039 20.0948 22.2118 20.1927 21.7775 20.1927C21.3431 20.1927 20.951 20.0948 20.6893 19.9437L19.9088 21.2956C20.4637 21.6159 21.1417 21.7537 21.7775 21.7537C22.4132 21.7537 23.0914 21.6159 23.6462 21.2956L22.8657 19.9437ZM20.6893 19.9437C20.5591 19.8685 20.4998 19.8029 20.4771 19.7698C20.4574 19.7411 20.4678 19.7426 20.4672 19.768L18.9067 19.7282C18.8887 20.4308 19.3478 20.9717 19.9088 21.2956L20.6893 19.9437ZM20.4674 19.7552C20.4678 19.7116 20.4746 18.9454 20.4671 18.6361L18.9066 18.6737C18.9132 18.9505 18.907 19.6839 18.9064 19.7411L20.4674 19.7552ZM20.4671 18.6361C20.4678 18.6616 20.4574 18.663 20.4772 18.6341C20.4999 18.601 20.5593 18.5355 20.6893 18.4603L19.9088 17.1085C19.3484 17.432 18.8897 17.9721 18.9066 18.6737L20.4671 18.6361ZM20.6893 18.4603C20.951 18.3093 21.3431 18.2114 21.7775 18.2114C22.2118 18.2114 22.6039 18.3093 22.8657 18.4603L23.6462 17.1085C23.0914 16.7882 22.4132 16.6504 21.7775 16.6504C21.1417 16.6504 20.4637 16.7882 19.9088 17.1085L20.6893 18.4603ZM22.8657 18.4603C22.9958 18.5355 23.055 18.601 23.0777 18.6341C23.0976 18.663 23.0873 18.6616 23.0878 18.6361L24.6483 18.6737C24.6653 17.9721 24.2065 17.432 23.6462 17.1085L22.8657 18.4603ZM23.0878 18.6361C23.0803 18.9454 23.0873 19.7116 23.0877 19.7552L24.6485 19.7411C24.648 19.6839 24.6417 18.9505 24.6483 18.6737L23.0878 18.6361Z" fill="#1D1D1B"/>
</g>
<path d="M20.5691 8.16455H22.9863V17.833C22.9863 17.833 22.9863 18.2359 21.7777 18.2359C20.5691 18.2359 20.5691 17.833 20.5691 17.833V8.16455Z" fill="white"/>
<path d="M20.5691 7.77393H20.1788V8.16417V17.8327H20.5691C20.1788 17.8327 20.1788 17.8338 20.1788 17.8338V17.835V17.8373L20.1789 17.8422L20.1793 17.8527C20.1797 17.8599 20.1802 17.8677 20.1811 17.876C20.1827 17.8927 20.1855 17.9113 20.1899 17.9318C20.1986 17.9728 20.2139 18.0199 20.2389 18.0701C20.2904 18.1731 20.376 18.2737 20.5037 18.3588C20.7487 18.5221 21.1423 18.6257 21.7777 18.6257C22.413 18.6257 22.8066 18.5221 23.0516 18.3588C23.1793 18.2736 23.2649 18.1731 23.3164 18.0701C23.3415 18.0199 23.3566 17.9728 23.3655 17.9317C23.3698 17.9113 23.3726 17.8926 23.3742 17.876C23.375 17.8677 23.3756 17.8599 23.3759 17.8527L23.3763 17.8422L23.3764 17.8373V17.8349L23.3765 17.8337C23.3765 17.8337 23.3765 17.8327 22.9862 17.8327H23.3765V8.16417V7.77393H22.9862H20.5691Z" stroke="#1D1D1B" stroke-width="0.8"/>
<path fill-rule="evenodd" clip-rule="evenodd" d="M23.868 8.46765C23.876 8.78258 23.672 9.09887 23.2559 9.33916C22.4394 9.81058 21.1156 9.81058 20.2991 9.33916C19.8829 9.09887 19.6789 8.78258 19.6869 8.46765C19.6874 8.41721 19.6939 7.66745 19.6869 7.37448C19.6793 7.05984 19.8834 6.74396 20.2991 6.50395C21.1156 6.03254 22.4394 6.03254 23.2559 6.50395C23.6717 6.74396 23.8757 7.05984 23.868 7.37448C23.861 7.66745 23.8677 8.41721 23.868 8.46765Z" fill="#EFE9FE"/>
<mask id="mask1_1_501" style="mask-type:luminance" maskUnits="userSpaceOnUse" x="18" y="5" width="8" height="7">
<path d="M25.5403 5.1748H18.7111V11.0285H25.5403V5.1748Z" fill="white"/>
<path fill-rule="evenodd" clip-rule="evenodd" d="M23.868 8.46765C23.876 8.78258 23.672 9.09887 23.2559 9.33916C22.4394 9.81058 21.1156 9.81058 20.2991 9.33916C19.8829 9.09887 19.6789 8.78258 19.6869 8.46765C19.6874 8.41721 19.6939 7.66745 19.6869 7.37448C19.6793 7.05984 19.8834 6.74396 20.2991 6.50395C21.1156 6.03254 22.4394 6.03254 23.2559 6.50395C23.6717 6.74396 23.8757 7.05984 23.868 7.37448C23.861 7.66745 23.8677 8.41721 23.868 8.46765Z" fill="black"/>
</mask>
<g mask="url(#mask1_1_501)">
<path d="M23.868 8.46786H23.0876V8.47782L23.0878 8.48777L23.868 8.46786ZM19.6869 8.46786L20.4672 8.48777L20.4674 8.47489L19.6869 8.46786ZM23.868 8.46786H24.6486L24.6485 8.46084L23.868 8.46786ZM23.0878 8.48777C23.0872 8.4623 23.0976 8.46084 23.0778 8.48952C23.0551 8.5226 22.9958 8.58825 22.8657 8.66338L23.6462 10.0153C24.2071 9.69138 24.6662 9.1505 24.6483 8.44806L23.0878 8.48777ZM22.8657 8.66338C22.6039 8.8145 22.2118 8.91245 21.7775 8.91245C21.3431 8.91245 20.951 8.8145 20.6893 8.66338L19.9088 10.0153C20.4637 10.3356 21.1417 10.4734 21.7775 10.4734C22.4132 10.4734 23.0914 10.3356 23.6462 10.0153L22.8657 8.66338ZM20.6893 8.66338C20.5591 8.58825 20.4998 8.5226 20.4771 8.48952C20.4574 8.46084 20.4678 8.4623 20.4672 8.48777L18.9067 8.44796C18.8887 9.1505 19.3478 9.69138 19.9088 10.0153L20.6893 8.66338ZM20.4674 8.47489C20.4678 8.43128 20.4746 7.66513 20.4671 7.35586L18.9066 7.39342C18.9132 7.6702 18.907 8.40357 18.9064 8.46084L20.4674 8.47489ZM20.4671 7.35586C20.4678 7.38133 20.4574 7.38269 20.4772 7.35381C20.4999 7.32074 20.5593 7.25518 20.6893 7.18006L19.9088 5.82824C19.3484 6.15178 18.8897 6.69183 18.9066 7.39342L20.4671 7.35586ZM20.6893 7.18006C20.951 7.02903 21.3431 6.93108 21.7775 6.93108C22.2118 6.93108 22.6039 7.02903 22.8657 7.18006L23.6462 5.82824C23.0914 5.50791 22.4132 5.37012 21.7775 5.37012C21.1417 5.37012 20.4637 5.50791 19.9088 5.82824L20.6893 7.18006ZM22.8657 7.18006C22.9958 7.25518 23.055 7.32074 23.0777 7.35381C23.0976 7.38269 23.0873 7.38133 23.0878 7.35586L24.6483 7.39342C24.6653 6.69183 24.2065 6.15178 23.6462 5.82824L22.8657 7.18006ZM23.0878 7.35586C23.0803 7.66513 23.0873 8.43128 23.0877 8.47489L24.6485 8.46084C24.648 8.40357 24.6417 7.6702 24.6483 7.39342L23.0878 7.35586Z" fill="#1D1D1B"/>
</g>
<path fill-rule="evenodd" clip-rule="evenodd" d="M16.6824 23.9419C16.6864 23.9396 16.6903 23.9374 16.6942 23.9351C16.6942 23.9351 16.6939 23.9026 16.6934 23.8483C16.6949 23.821 16.6947 23.7936 16.6928 23.7663C16.6912 23.5164 16.689 23.0546 16.6942 22.8392C16.7017 22.5247 16.4977 22.2088 16.082 21.9688C15.2655 21.4974 13.9416 21.4974 13.1251 21.9688C12.7094 22.2088 12.5053 22.5247 12.5129 22.8392C12.5181 23.0546 12.5159 23.5164 12.5142 23.7663C12.5124 23.7936 12.5122 23.821 12.5136 23.8483C12.5132 23.9026 12.5129 23.9351 12.5129 23.9351C12.5168 23.9374 12.5207 23.9396 12.5247 23.9419C12.5739 24.2064 12.774 24.4632 13.1251 24.666C13.9416 25.1374 15.2655 25.1374 16.082 24.666C16.4331 24.4632 16.6332 24.2064 16.6824 23.9419Z" fill="#D5C8FB"/>
<path fill-rule="evenodd" clip-rule="evenodd" d="M12.5129 23.9325C12.5134 23.8821 12.5199 23.1322 12.5129 22.8392C12.5053 22.5247 12.7094 22.2088 13.1251 21.9688C13.9416 21.4974 15.2655 21.4974 16.082 21.9688C16.4977 22.2088 16.7017 22.5247 16.6942 22.8392C16.6871 23.1322 16.6937 23.8821 16.6942 23.9325C16.7022 24.2473 16.4981 24.5637 16.082 24.8039C15.2655 25.2753 13.9416 25.2753 13.1251 24.8039C12.7089 24.5637 12.5049 24.2473 12.5129 23.9325Z" fill="#EFE9FE"/>
<mask id="mask2_1_501" style="mask-type:luminance" maskUnits="userSpaceOnUse" x="11" y="20" width="8" height="7">
<path d="M18.3664 20.6396H11.5371V26.4933H18.3664V20.6396Z" fill="white"/>
<path fill-rule="evenodd" clip-rule="evenodd" d="M12.5129 23.9325C12.5134 23.8821 12.5199 23.1322 12.5129 22.8392C12.5053 22.5247 12.7094 22.2088 13.1251 21.9688C13.9416 21.4974 15.2655 21.4974 16.082 21.9688C16.4977 22.2088 16.7017 22.5247 16.6942 22.8392C16.6871 23.1322 16.6937 23.8821 16.6942 23.9325C16.7022 24.2473 16.4981 24.5637 16.082 24.8039C15.2655 25.2753 13.9416 25.2753 13.1251 24.8039C12.7089 24.5637 12.5049 24.2473 12.5129 23.9325Z" fill="black"/>
</mask>
<g mask="url(#mask2_1_501)">
<path d="M12.5129 23.9327L13.2933 23.9526L13.2934 23.9397L12.5129 23.9327ZM16.6942 23.9327L15.9136 23.9397L15.9139 23.9526L16.6942 23.9327ZM13.2934 23.9397C13.2938 23.8961 13.3006 23.13 13.2932 22.8206L11.7326 22.8583C11.7394 23.135 11.733 23.8684 11.7325 23.9257L13.2934 23.9397ZM13.2932 22.8206C13.2938 22.8461 13.2835 22.8474 13.3033 22.8187C13.3261 22.7856 13.3853 22.7199 13.5154 22.6449L12.7349 21.2931C12.1745 21.6166 11.7158 22.1566 11.7326 22.8583L13.2932 22.8206ZM13.5154 22.6449C13.777 22.4938 14.1691 22.3959 14.6036 22.3959C15.0379 22.3959 15.4301 22.4938 15.6918 22.6449L16.4722 21.2931C15.9174 20.9727 15.2394 20.835 14.6036 20.835C13.9678 20.835 13.2897 20.9727 12.7349 21.2931L13.5154 22.6449ZM15.6918 22.6449C15.8218 22.7199 15.881 22.7856 15.9038 22.8187C15.9237 22.8474 15.9133 22.8461 15.9139 22.8206L17.4744 22.8583C17.4914 22.1566 17.0326 21.6166 16.4722 21.2931L15.6918 22.6449ZM15.9139 22.8206C15.9065 23.13 15.9132 23.8961 15.9136 23.9397L17.4746 23.9257C17.4741 23.8684 17.4678 23.135 17.4744 22.8583L15.9139 22.8206ZM15.9139 23.9526C15.9132 23.9272 15.9237 23.9256 15.9038 23.9544C15.8811 23.9874 15.8219 24.0531 15.6918 24.1282L16.4722 25.4801C17.0332 25.1562 17.4923 24.6154 17.4744 23.9128L15.9139 23.9526ZM15.6918 24.1282C15.4301 24.2794 15.0379 24.3772 14.6036 24.3772C14.1691 24.3772 13.777 24.2794 13.5154 24.1282L12.7349 25.4801C13.2897 25.8004 13.9678 25.9382 14.6036 25.9382C15.2394 25.9382 15.9174 25.8004 16.4722 25.4801L15.6918 24.1282ZM13.5154 24.1282C13.3851 24.0531 13.3259 23.9874 13.3033 23.9544C13.2835 23.9256 13.2939 23.9272 13.2933 23.9526L11.7327 23.9128C11.7148 24.6154 12.1739 25.1562 12.7349 25.4801L13.5154 24.1282Z" fill="#1D1D1B"/>
</g>
<path d="M13.3949 12.3496H15.812V22.0181C15.812 22.0181 15.812 22.421 14.6035 22.421C13.3949 22.421 13.3949 22.0181 13.3949 22.0181V12.3496Z" fill="white"/>
<path d="M13.3949 11.9595H13.0046V12.3497V22.0182H13.3949C13.0046 22.0182 13.0046 22.0194 13.0046 22.0194V22.0205V22.0229L13.0047 22.0279L13.0051 22.0383C13.0054 22.0455 13.006 22.0533 13.0069 22.0616C13.0085 22.0782 13.0113 22.0969 13.0157 22.1173C13.0244 22.1584 13.0396 22.2055 13.0647 22.2558C13.1162 22.3588 13.2018 22.4593 13.3295 22.5444C13.5745 22.7077 13.9682 22.8114 14.6035 22.8114C15.2388 22.8114 15.6324 22.7077 15.8774 22.5444C16.005 22.4593 16.0907 22.3587 16.1422 22.2557C16.1673 22.2054 16.1824 22.1583 16.1912 22.1173C16.1956 22.0968 16.1983 22.0782 16.2001 22.0615C16.2008 22.0532 16.2014 22.0454 16.2017 22.0382L16.2021 22.0278L16.2022 22.0229V22.0205V22.0194C16.2022 22.0194 16.2022 22.0182 15.812 22.0182H16.2022V12.3497V11.9595H15.812H13.3949Z" stroke="#1D1D1B" stroke-width="0.8"/>
<path fill-rule="evenodd" clip-rule="evenodd" d="M12.5129 12.6528C12.5134 12.6023 12.5199 11.8525 12.5129 11.5595C12.5053 11.245 12.7094 10.9291 13.1251 10.689C13.9416 10.2176 15.2655 10.2176 16.082 10.689C16.4977 10.9291 16.7017 11.245 16.6942 11.5595C16.6871 11.8525 16.6937 12.6024 16.6942 12.6528C16.7022 12.9676 16.4981 13.2839 16.082 13.5242C15.2655 13.9956 13.9416 13.9956 13.1251 13.5242C12.7089 13.2839 12.5049 12.9676 12.5129 12.6528Z" fill="#EFE9FE"/>
<mask id="mask3_1_501" style="mask-type:luminance" maskUnits="userSpaceOnUse" x="11" y="9" width="8" height="7">
<path d="M18.3664 9.35986H11.5371V15.2135H18.3664V9.35986Z" fill="white"/>
<path fill-rule="evenodd" clip-rule="evenodd" d="M12.5129 12.6528C12.5134 12.6023 12.5199 11.8525 12.5129 11.5595C12.5053 11.245 12.7094 10.9291 13.1251 10.689C13.9416 10.2176 15.2655 10.2176 16.082 10.689C16.4977 10.9291 16.7017 11.245 16.6942 11.5595C16.6871 11.8525 16.6937 12.6024 16.6942 12.6528C16.7022 12.9676 16.4981 13.2839 16.082 13.5242C15.2655 13.9956 13.9416 13.9956 13.1251 13.5242C12.7089 13.2839 12.5049 12.9676 12.5129 12.6528Z" fill="black"/>
</mask>
<g mask="url(#mask3_1_501)">
<path d="M12.5129 12.653L13.2933 12.6729L13.2934 12.6601L12.5129 12.653ZM16.6942 12.653L15.9136 12.6601L15.9139 12.6729L16.6942 12.653ZM13.2934 12.6601C13.2938 12.6163 13.3006 11.8502 13.2932 11.5409L11.7326 11.5786C11.7394 11.8553 11.733 12.5886 11.7325 12.646L13.2934 12.6601ZM13.2932 11.5409C13.2938 11.5664 13.2835 11.5678 13.3033 11.539C13.3261 11.5058 13.3853 11.4402 13.5154 11.3652L12.7349 10.0133C12.1745 10.3369 11.7158 10.8769 11.7326 11.5786L13.2932 11.5409ZM13.5154 11.3652C13.777 11.2141 14.1691 11.1162 14.6036 11.1162C15.0379 11.1162 15.4301 11.2141 15.6918 11.3652L16.4722 10.0133C15.9174 9.69303 15.2394 9.55518 14.6036 9.55518C13.9678 9.55518 13.2897 9.69303 12.7349 10.0133L13.5154 11.3652ZM15.6918 11.3652C15.8218 11.4402 15.881 11.5058 15.9038 11.539C15.9237 11.5678 15.9133 11.5664 15.9139 11.5409L17.4744 11.5786C17.4914 10.8769 17.0326 10.3369 16.4722 10.0133L15.6918 11.3652ZM15.9139 11.5409C15.9065 11.8502 15.9132 12.6164 15.9136 12.6601L17.4746 12.646C17.4741 12.5887 17.4678 11.8553 17.4744 11.5786L15.9139 11.5409ZM15.9139 12.6729C15.9132 12.6474 15.9237 12.6459 15.9038 12.6747C15.8811 12.7078 15.8219 12.7733 15.6918 12.8485L16.4722 14.2003C17.0332 13.8765 17.4923 13.3356 17.4744 12.6331L15.9139 12.6729ZM15.6918 12.8485C15.4301 12.9997 15.0379 13.0975 14.6036 13.0975C14.1691 13.0975 13.777 12.9997 13.5154 12.8485L12.7349 14.2003C13.2897 14.5207 13.9678 14.6585 14.6036 14.6585C15.2394 14.6585 15.9174 14.5207 16.4722 14.2003L15.6918 12.8485ZM13.5154 12.8485C13.3851 12.7733 13.3259 12.7078 13.3033 12.6747C13.2835 12.6459 13.2939 12.6474 13.2933 12.6729L11.7327 12.6331C11.7148 13.3356 12.1739 13.8765 12.7349 14.2003L13.5154 12.8485Z" fill="#1D1D1B"/>
</g>
<path fill-rule="evenodd" clip-rule="evenodd" d="M8.91051 28.3653C8.91451 28.363 8.91841 28.3608 8.92231 28.3586C8.92231 28.3586 8.92202 28.3261 8.92163 28.2717C8.923 28.2444 8.9228 28.217 8.92104 28.1897C8.91929 27.9398 8.91714 27.478 8.92231 27.2626C8.92992 26.9481 8.72582 26.6322 8.31012 26.3922C7.49363 25.9207 6.16982 25.9207 5.35324 26.3922C4.93753 26.6322 4.73353 26.9481 4.74104 27.2626C4.74631 27.478 4.74407 27.9398 4.74241 28.1897C4.74056 28.217 4.74036 28.2444 4.74183 28.2717C4.74134 28.3261 4.74104 28.3586 4.74104 28.3586C4.74495 28.3608 4.74885 28.363 4.75285 28.3653C4.80202 28.6298 5.00212 28.8866 5.35324 29.0894C6.16982 29.5608 7.49363 29.5608 8.31012 29.0894C8.66124 28.8866 8.86143 28.6298 8.91051 28.3653Z" fill="#D5C8FB"/>
<path fill-rule="evenodd" clip-rule="evenodd" d="M8.922 28.3559C8.9301 28.6707 8.726 28.987 8.3099 29.2273C7.49332 29.6987 6.16951 29.6987 5.35302 29.2273C4.93683 28.987 4.73283 28.6707 4.74083 28.3559C4.74131 28.3054 4.74785 27.5556 4.74083 27.2626C4.73322 26.9481 4.93731 26.6322 5.35302 26.3922C6.16951 25.9207 7.49332 25.9207 8.3099 26.3922C8.72561 26.6322 8.92961 26.9481 8.9221 27.2626C8.91497 27.5556 8.92161 28.3055 8.922 28.3559Z" fill="#EFE9FE"/>
<mask id="mask4_1_501" style="mask-type:luminance" maskUnits="userSpaceOnUse" x="3" y="25" width="8" height="6">
<path d="M10.5943 25.063H3.76501V30.9166H10.5943V25.063Z" fill="white"/>
<path fill-rule="evenodd" clip-rule="evenodd" d="M8.922 28.3559C8.9301 28.6707 8.726 28.987 8.3099 29.2273C7.49332 29.6987 6.16951 29.6987 5.35302 29.2273C4.93683 28.987 4.73283 28.6707 4.74083 28.3559C4.74131 28.3054 4.74785 27.5556 4.74083 27.2626C4.73322 26.9481 4.93731 26.6322 5.35302 26.3922C6.16951 25.9207 7.49332 25.9207 8.3099 26.3922C8.72561 26.6322 8.92961 26.9481 8.9221 27.2626C8.91497 27.5556 8.92161 28.3055 8.922 28.3559Z" fill="black"/>
</mask>
<g mask="url(#mask4_1_501)">
<path d="M8.922 28.3562H8.14151V28.3661L8.1418 28.3761L8.922 28.3562ZM4.74083 28.3562L5.52122 28.3761L5.52131 28.3632L4.74083 28.3562ZM8.922 28.3562H9.70258L9.70249 28.3491L8.922 28.3562ZM8.1418 28.3761C8.14112 28.3505 8.15156 28.349 8.13175 28.3778C8.10902 28.4109 8.0498 28.4764 7.91966 28.5517L8.70014 29.9035C9.26112 29.5797 9.72014 29.0388 9.70229 28.3363L8.1418 28.3761ZM7.91966 28.5517C7.6579 28.7028 7.2658 28.8006 6.83146 28.8006C6.39702 28.8006 6.00492 28.7028 5.74327 28.5517L4.96278 29.9035C5.51761 30.2239 6.19566 30.3616 6.83146 30.3616C7.46727 30.3616 8.14531 30.2239 8.70014 29.9035L7.91966 28.5517ZM5.74327 28.5517C5.61302 28.4764 5.5538 28.4109 5.53107 28.3778C5.51136 28.349 5.5218 28.3505 5.52122 28.3761L3.96063 28.3363C3.94268 29.0387 4.4018 29.5797 4.96278 29.9035L5.74327 28.5517ZM5.52131 28.3632C5.52171 28.3195 5.52853 27.5533 5.52112 27.2441L3.96053 27.2817C3.96727 27.5584 3.96092 28.2918 3.96034 28.3491L5.52131 28.3632ZM5.52112 27.2441C5.52171 27.2695 5.51136 27.2709 5.53117 27.2421C5.5539 27.2089 5.61322 27.1434 5.74327 27.0684L4.96278 25.7164C4.40239 26.0401 3.94366 26.5801 3.96053 27.2817L5.52112 27.2441ZM5.74327 27.0684C6.00492 26.9172 6.39702 26.8193 6.83146 26.8193C7.2658 26.8193 7.6579 26.9172 7.91966 27.0684L8.70014 25.7164C8.14531 25.3962 7.46727 25.2583 6.83146 25.2583C6.19566 25.2583 5.51761 25.3962 4.96278 25.7164L5.74327 27.0684ZM7.91966 27.0684C8.04971 27.1434 8.10892 27.2089 8.13166 27.2421C8.15156 27.2709 8.14122 27.2695 8.1418 27.2441L9.70229 27.2817C9.71927 26.5801 9.26053 26.0401 8.70014 25.7164L7.91966 27.0684ZM8.1418 27.2441C8.13439 27.5533 8.14122 28.3196 8.14161 28.3632L9.70249 28.3491C9.702 28.2919 9.69566 27.5584 9.70229 27.2817L8.1418 27.2441Z" fill="#1D1D1B"/>
</g>
<path d="M5.62292 16.7734H8.04V26.4419C8.04 26.4419 8.04 26.8449 6.83151 26.8449C5.62292 26.8449 5.62292 26.4419 5.62292 26.4419V16.7734Z" fill="white"/>
<path d="M5.62291 16.3833H5.23267V16.7735V26.442H5.62291C5.23267 26.442 5.23267 26.4432 5.23267 26.4432V26.4444V26.4467L5.23276 26.4516L5.23315 26.462C5.23345 26.4693 5.23403 26.4771 5.23491 26.4854C5.23657 26.502 5.2393 26.5208 5.24369 26.5412C5.25247 26.5821 5.26759 26.6294 5.29276 26.6795C5.34428 26.7826 5.42984 26.8831 5.55745 26.9682C5.80242 27.1315 6.19618 27.2352 6.8315 27.2352C7.46681 27.2352 7.86047 27.1315 8.10545 26.9682C8.23306 26.883 8.31862 26.7825 8.37023 26.6795C8.3953 26.6293 8.41042 26.5821 8.4192 26.5411C8.42359 26.5207 8.42632 26.502 8.42798 26.4854C8.42886 26.4771 8.42945 26.4693 8.42974 26.462L8.43013 26.4516L8.43023 26.4467V26.4444V26.4432C8.43023 26.4432 8.43023 26.442 8.03998 26.442H8.43023V16.7735V16.3833H8.03998H5.62291Z" stroke="#1D1D1B" stroke-width="0.8"/>
<path fill-rule="evenodd" clip-rule="evenodd" d="M8.922 17.0766C8.9301 17.3915 8.726 17.7078 8.3099 17.9481C7.49332 18.4195 6.16951 18.4195 5.35302 17.9481C4.93683 17.7078 4.73283 17.3915 4.74083 17.0765C4.74131 17.0261 4.74785 16.2764 4.74083 15.9834C4.73322 15.6688 4.93731 15.3528 5.35302 15.1128C6.16951 14.6414 7.49332 14.6414 8.3099 15.1128C8.72561 15.3528 8.92961 15.6688 8.9221 15.9834C8.91497 16.2764 8.92161 17.0262 8.922 17.0766Z" fill="#EFE9FE"/>
<mask id="mask5_1_501" style="mask-type:luminance" maskUnits="userSpaceOnUse" x="3" y="13" width="8" height="7">
<path d="M10.5943 13.7837H3.76501V19.6374H10.5943V13.7837Z" fill="white"/>
<path fill-rule="evenodd" clip-rule="evenodd" d="M8.922 17.0766C8.9301 17.3915 8.726 17.7078 8.3099 17.9481C7.49332 18.4195 6.16951 18.4195 5.35302 17.9481C4.93683 17.7078 4.73283 17.3915 4.74083 17.0765C4.74131 17.0261 4.74785 16.2764 4.74083 15.9834C4.73322 15.6688 4.93731 15.3528 5.35302 15.1128C6.16951 14.6414 7.49332 14.6414 8.3099 15.1128C8.72561 15.3528 8.92961 15.6688 8.9221 15.9834C8.91497 16.2764 8.92161 17.0262 8.922 17.0766Z" fill="black"/>
</mask>
<g mask="url(#mask5_1_501)">
<path d="M8.922 17.0769H8.14151V17.0867L8.1418 17.0967L8.922 17.0769ZM4.74083 17.0768L5.52122 17.0967L5.52131 17.0838L4.74083 17.0768ZM8.922 17.0769L9.70258 17.0768L9.70249 17.0697L8.922 17.0769ZM8.1418 17.0967C8.14112 17.0712 8.15156 17.0697 8.13175 17.0985C8.10902 17.1316 8.0498 17.1972 7.91966 17.2724L8.70014 18.6242C9.26112 18.3003 9.72014 17.7594 9.70229 17.057L8.1418 17.0967ZM7.91966 17.2724C7.6579 17.4234 7.2658 17.5213 6.83146 17.5213C6.39702 17.5213 6.00492 17.4234 5.74327 17.2724L4.96278 18.6242C5.51761 18.9445 6.19566 19.0823 6.83146 19.0823C7.46727 19.0823 8.14531 18.9445 8.70014 18.6242L7.91966 17.2724ZM5.74327 17.2724C5.61302 17.1972 5.5538 17.1315 5.53107 17.0985C5.51136 17.0697 5.5218 17.0712 5.52122 17.0967L3.96063 17.0569C3.94268 17.7594 4.4018 18.3003 4.96278 18.6242L5.74327 17.2724ZM5.52131 17.0838C5.52171 17.0402 5.52853 16.274 5.52112 15.9648L3.96053 16.0023C3.96727 16.2791 3.96092 17.0125 3.96034 17.0697L5.52131 17.0838ZM5.52112 15.9648C5.52171 15.9902 5.51136 15.9916 5.53117 15.9627C5.5539 15.9296 5.61322 15.8641 5.74327 15.789L4.96278 14.4372C4.40239 14.7607 3.94366 15.3008 3.96053 16.0023L5.52112 15.9648ZM5.74327 15.789C6.00492 15.6379 6.39702 15.54 6.83146 15.54C7.2658 15.54 7.6579 15.6379 7.91966 15.789L8.70014 14.4372C8.14531 14.1169 7.46727 13.979 6.83146 13.979C6.19566 13.979 5.51761 14.1169 4.96278 14.4372L5.74327 15.789ZM7.91966 15.789C8.04971 15.8641 8.10892 15.9296 8.13166 15.9627C8.15156 15.9916 8.14122 15.9902 8.1418 15.9648L9.70229 16.0023C9.71927 15.3008 9.26053 14.7607 8.70014 14.4372L7.91966 15.789ZM8.1418 15.9648C8.13439 16.274 8.14122 17.0402 8.14161 17.0838L9.70249 17.0697C9.702 17.0125 9.69566 16.2791 9.70229 16.0023L8.1418 15.9648Z" fill="#1D1D1B"/>
</g>
<path d="M4.14282 16.6949V18.1616C4.14282 18.2693 4.21843 18.313 4.3118 18.2592L26.7724 5.2915C26.8657 5.23762 26.9414 5.10658 26.9414 4.99882V3.53213C26.9414 3.46318 26.9098 3.41754 26.8585 3.41209L15.6282 2.21906C15.5751 2.21342 15.5091 2.25151 15.456 2.31845L4.22575 16.4792C4.17433 16.5439 4.14282 16.626 4.14282 16.6949Z" fill="#D5C8FB"/>
<path d="M4.14282 16.6949V18.1616C4.14282 18.2693 4.21843 18.313 4.3118 18.2592L26.7724 5.2915C26.8657 5.23762 26.9414 5.10658 26.9414 4.99882V3.53213C26.9414 3.46318 26.9098 3.41754 26.8585 3.41209L15.6282 2.21906C15.5751 2.21342 15.5091 2.25151 15.456 2.31845L4.22575 16.4792C4.17433 16.5439 4.14282 16.626 4.14282 16.6949Z" stroke="#1D1D1B" stroke-width="0.8" stroke-linejoin="round"/>
<path d="M26.6183 19.7528L5.61345 31.7835C5.56886 31.8091 5.52613 31.8132 5.49462 31.7949L1.15356 29.2868V32.6227C1.15356 32.6732 1.1705 32.7119 1.2008 32.7308L5.49364 35.4019C5.52574 35.4218 5.56994 35.4179 5.61608 35.391L26.7024 23.1208C26.7955 23.0666 26.8708 22.936 26.8708 22.8285V19.8997C26.8708 19.7385 26.7579 19.6729 26.6183 19.7528Z" fill="#D5C8FB"/>
<path d="M26.6183 19.7528L5.61345 31.7835C5.56886 31.8091 5.52613 31.8132 5.49462 31.7949L1.15356 29.2868V32.6227C1.15356 32.6732 1.1705 32.7119 1.2008 32.7308L5.49364 35.4019C5.52574 35.4218 5.56994 35.4179 5.61608 35.391L26.7024 23.1208C26.7955 23.0666 26.8708 22.936 26.8708 22.8285V19.8997C26.8708 19.7385 26.7579 19.6729 26.6183 19.7528Z" stroke="#1D1D1B" stroke-width="0.8" stroke-linejoin="round"/>
</svg>
