<svg width="21" height="37" viewBox="0 0 21 37" fill="none" xmlns="http://www.w3.org/2000/svg">
<path d="M1.08768 35.0122L1.08759 7.98912C1.08759 7.8499 1.16173 7.72128 1.28212 7.65148L12.2393 1.30026C12.2541 1.29165 12.271 1.28711 12.2882 1.28711H12.6298C12.6968 1.28711 12.7568 1.31708 12.791 1.37457C14.1998 3.74169 16.4745 12.8519 17.3349 16.0943C17.4149 16.3959 17.3469 16.7134 17.1518 16.9569L2.26427 35.532C2.20749 35.6029 2.10944 35.6252 2.02768 35.586L1.19841 35.1881C1.13071 35.1558 1.08768 35.0874 1.08768 35.0122Z" fill="#1D1D1B"/>
<path d="M1.08768 35.0122L1.08759 7.98912C1.08759 7.8499 1.16173 7.72128 1.28212 7.65148L12.2393 1.30026C12.2541 1.29165 12.271 1.28711 12.2882 1.28711H12.6298C12.6968 1.28711 12.7568 1.31708 12.791 1.37457C14.1998 3.74169 16.4745 12.8519 17.3349 16.0943C17.4149 16.3958 17.3469 16.7134 17.1518 16.9569L2.26427 35.532C2.20749 35.6029 2.10944 35.6252 2.02768 35.586L1.19841 35.1881C1.13071 35.1558 1.08768 35.0874 1.08768 35.0122Z" stroke="#1D1D1B"/>
<path d="M2.16614 7.8713C2.16614 7.76349 2.24184 7.63247 2.33511 7.57859L12.7569 1.56161C12.8017 1.53573 12.8447 1.53147 12.8763 1.54977L19.5615 5.40941C19.5931 5.42771 19.6109 5.46828 19.6109 5.52002C19.6109 13.1486 19.6109 16.6423 19.6109 25.3835C19.6109 25.4913 19.5352 25.6252 19.4419 25.679L2.33511 35.5556C2.24184 35.6095 2.16614 35.5658 2.16614 35.458V7.8713Z" fill="#D5C8FB" stroke="#1D1D1B"/>
<path d="M19.3211 5.27167L13.1139 1.68798C13.0075 1.62652 12.8254 1.81866 12.8254 1.9925V9.15989C12.8254 9.2676 12.901 9.31131 12.9944 9.25745L19.2015 5.67375C19.3521 5.58683 19.4275 5.33313 19.3211 5.27167Z" fill="#EFE9FE" stroke="#1D1D1B"/>
<path d="M11.9736 9.35585C11.9736 9.62521 12.1921 9.84365 12.4614 9.84365C12.7309 9.84365 12.9492 9.62521 12.9492 9.35585H11.9736ZM11.9736 2.08179V9.35585H12.9492V2.08179H11.9736Z" fill="#1D1D1B"/>
<path d="M16.7144 11.9814L5.52356 18.4424L5.52356 28.4544L16.7144 21.9934L16.7144 11.9814Z" fill="white" stroke="#1D1D1B" stroke-linejoin="round"/>
<path d="M14.4705 15.165C14.5117 15.1674 14.5287 15.2183 14.5045 15.2788C13.921 16.8139 13.4003 18.1118 12.9354 19.2087C13.0105 19.4363 13.0759 19.6687 13.1316 19.889C13.2308 20.3032 13.2937 20.6833 13.2937 20.9738C13.2937 21.1215 13.2816 21.245 13.2332 21.3637C13.2138 21.4048 13.1921 21.446 13.1582 21.4823C13.1339 21.5089 13.1073 21.5332 13.0831 21.5453C12.9983 21.5913 12.9354 21.5767 12.8651 21.5478C12.795 21.5163 12.7199 21.463 12.64 21.3903C12.5068 21.2692 12.3543 21.1022 12.1872 20.9012C11.4511 22.4993 10.8845 23.4945 10.4366 24.0999C10.1581 24.4752 9.9232 24.7028 9.71744 24.8239C9.63754 24.8698 9.56485 24.8989 9.49705 24.911C9.30095 24.9497 9.13871 24.8747 9.00554 24.7221C8.86993 24.5696 8.76339 24.3396 8.67617 24.0587C8.50671 23.4945 8.42437 22.7197 8.42193 21.9206C8.41959 21.3855 8.45344 20.8407 8.52612 20.3419C8.59627 19.8407 8.70524 19.3854 8.85295 19.0246C8.95227 18.7825 9.0709 18.5767 9.22349 18.4338C9.27188 18.3902 9.32027 18.3539 9.36876 18.3248C9.50915 18.2426 9.64964 18.2256 9.79246 18.2474C9.93295 18.2716 10.0782 18.3346 10.2259 18.4242C10.5116 18.6009 10.8094 18.8915 11.1073 19.2184C11.1485 18.8333 11.1993 18.4944 11.2622 18.216C11.3155 17.9859 11.3761 17.797 11.4608 17.6445C11.5092 17.5573 11.5697 17.4799 11.6375 17.4289L11.6715 17.4047C11.7514 17.3611 11.8264 17.3588 11.8967 17.3781C11.9645 17.4023 12.0323 17.4484 12.0976 17.5113C12.2308 17.6397 12.364 17.843 12.4898 18.0949C12.6254 18.3588 12.7563 18.676 12.8725 19.0053C13.3156 17.952 13.8095 16.7171 14.3592 15.2691C14.3737 15.228 14.4028 15.194 14.4342 15.1771L14.4705 15.165ZM11.2937 22.417C11.5334 21.9618 11.7973 21.4194 12.088 20.785C11.8168 20.4532 11.5238 20.0731 11.2211 19.7148C11.1896 20.1264 11.1678 20.5767 11.1532 21.0441C11.1509 21.0998 11.1145 21.1603 11.0661 21.1893C11.0176 21.216 10.9789 21.1918 10.9813 21.1361C11.0008 20.5671 11.0274 20.0271 11.071 19.5428C10.945 19.3975 10.8191 19.2596 10.6908 19.1336C10.3712 18.8116 10.054 18.5646 9.77793 18.4895C9.62056 18.4459 9.47773 18.4605 9.36388 18.5258C9.33237 18.5452 9.30095 18.567 9.26944 18.5961C9.175 18.6833 9.08056 18.8358 8.99344 19.0464C8.90622 19.2571 8.83119 19.521 8.77061 19.8165C8.64954 20.4073 8.58661 21.124 8.58905 21.8262C8.59149 22.4146 8.63744 22.9885 8.72944 23.4679C8.82388 23.9473 8.96437 24.3299 9.14359 24.5357C9.26456 24.6713 9.40017 24.7294 9.54554 24.7004C9.59637 24.6883 9.65207 24.6664 9.71256 24.6326C9.87725 24.5381 10.0807 24.3468 10.3372 23.9981C10.6036 23.6422 10.9184 23.1337 11.2937 22.417ZM11.2501 19.3854C11.5843 19.7728 11.9088 20.1942 12.1969 20.5501C12.3712 20.1651 12.5553 19.7438 12.749 19.2886C12.6086 18.8648 12.439 18.458 12.2671 18.1505C12.1218 17.8842 11.9692 17.6905 11.8385 17.6203C11.7683 17.5791 11.7053 17.5815 11.6715 17.6008L11.657 17.6106C11.6375 17.6251 11.6109 17.6518 11.5818 17.7075C11.5504 17.7607 11.5189 17.8382 11.4874 17.9326C11.4269 18.1239 11.3736 18.3879 11.3276 18.7002C11.2985 18.9085 11.2719 19.1385 11.2501 19.3854ZM13.1218 21.0731C13.1218 20.7318 13.0177 20.1942 12.8604 19.6493C12.8458 19.5985 12.8289 19.5452 12.8143 19.4944C12.6328 19.9181 12.4609 20.308 12.2962 20.6712C12.456 20.8649 12.6037 21.032 12.7296 21.153C12.8458 21.262 12.945 21.3323 13.0177 21.3491C13.0516 21.3589 13.0759 21.354 13.0831 21.3491L13.088 21.337C13.0928 21.3274 13.0976 21.308 13.1025 21.2838C13.1146 21.2354 13.1218 21.1603 13.1218 21.0731Z" fill="#1D1D1B" stroke="#1D1D1B" stroke-width="0.2"/>
</svg>
