<svg width="38" height="38" viewBox="0 0 38 38" fill="none" xmlns="http://www.w3.org/2000/svg">
<path d="M28.5925 1.74023C32.5027 1.74023 35.9932 3.41359 36.8683 5.66476L36.8852 14.7011C36.8852 17.532 33.1762 19.8276 28.5926 19.8276C24.0128 19.8276 20.3 17.532 20.3 14.7011L20.2999 5.92419C21.0157 3.54336 24.5334 1.74023 28.5925 1.74023Z" fill="#D5C8FB" stroke="#1D1D1B" stroke-width="0.8" stroke-miterlimit="10"/>
<path d="M28.5927 20.2275C28.8083 20.2275 28.983 20.0529 28.983 19.8373C28.983 19.6218 28.8083 19.447 28.5927 19.447V20.2275ZM19.9099 14.7109C19.9099 16.3115 20.9582 17.6997 22.5238 18.6676C24.0955 19.6392 26.2422 20.2275 28.5927 20.2275V19.447C26.3635 19.447 24.3639 18.8876 22.9342 18.0037C21.4984 17.1161 20.6904 15.9412 20.6904 14.7109H19.9099Z" fill="#1D1D1B"/>
<path d="M28.5927 17.0518C28.8083 17.0518 28.983 16.8771 28.983 16.6616C28.983 16.4461 28.8083 16.2714 28.5927 16.2714V17.0518ZM19.9099 11.5352C19.9099 13.1357 20.9582 14.5239 22.5238 15.4918C24.0955 16.4634 26.2422 17.0518 28.5927 17.0518V16.2714C26.3635 16.2714 24.3639 15.7118 22.9342 14.828C21.4984 13.9403 20.6904 12.7654 20.6904 11.5352H19.9099Z" fill="#1D1D1B"/>
<path d="M28.5927 13.8765C28.8083 13.8765 28.983 13.7018 28.983 13.4863C28.983 13.2707 28.8083 13.096 28.5927 13.096V13.8765ZM19.9099 8.35986C19.9099 9.9605 20.9582 11.3487 22.5238 12.3165C24.0955 13.2882 26.2422 13.8765 28.5927 13.8765V13.096C26.3635 13.096 24.3639 12.5365 22.9342 11.6527C21.4984 10.7651 20.6904 9.59006 20.6904 8.35986H19.9099Z" fill="#1D1D1B"/>
<path d="M28.5925 10.8076C33.1761 10.8076 36.8851 8.5121 36.8851 5.6813C36.8851 2.85051 33.1723 0.554932 28.5925 0.554932C24.0127 0.554932 20.2999 2.85051 20.2999 5.6813C20.2999 8.5121 24.0127 10.8076 28.5925 10.8076Z" fill="#EFE9FE" stroke="#1D1D1B" stroke-width="0.8" stroke-miterlimit="10"/>
<path d="M29.843 8.17434C28.8883 8.25755 27.9263 8.18397 26.9952 7.95642C26.9285 7.93114 26.8567 7.92173 26.7857 7.92893C26.7148 7.93614 26.6465 7.9598 26.5861 7.99798L25.2813 8.75041L24.4217 8.23147L25.6851 7.4997L24.8463 7.01192L23.5777 7.74358L22.7389 7.25582L24.0541 6.49819C24.1011 6.47971 24.1398 6.44467 24.1629 6.39962C24.1697 6.3784 24.1699 6.35559 24.1635 6.33425C24.157 6.3129 24.1442 6.29406 24.1266 6.28027C23.815 5.88481 23.6616 5.38707 23.6968 4.88437C23.7629 4.36134 24.0103 3.87817 24.3959 3.5195C24.8745 3.05985 25.4445 2.70624 26.0684 2.48163C26.8062 2.19432 27.5829 2.01941 28.3726 1.96269L28.735 1.92114H28.7712L28.3001 2.8137C27.7904 2.86937 27.2906 2.9934 26.8139 3.18225C26.4088 3.3397 26.0379 3.57396 25.7214 3.87234C25.4625 4.10823 25.2818 4.41787 25.2036 4.75971C25.1436 5.08028 25.2005 5.41183 25.3641 5.69382L27.7874 4.29271L28.621 4.77529L27.5854 5.38772L26.0787 6.25949C26.0269 6.28544 25.9803 6.36847 26.0114 6.38923L26.6793 6.77324C26.7134 6.78085 26.7488 6.78085 26.7829 6.77324C26.817 6.78103 26.8524 6.78103 26.8864 6.77324L29.4754 5.26318L30.3142 5.75095L27.9117 7.14166C28.4395 7.23623 28.9767 7.26581 29.5117 7.22984C30.0403 7.20126 30.5627 7.10186 31.065 6.93414C31.4961 6.7974 31.8994 6.58478 32.256 6.30625C32.546 6.08818 32.7672 5.7908 32.8928 5.44992L34.4462 5.16968C34.4462 5.16968 33.7213 7.74346 29.843 8.17434Z" fill="#1D1D1B"/>
<path d="M9.08029 9.54492C12.9905 9.54492 16.4811 11.2183 17.3561 13.4694L17.3731 22.5058C17.3731 25.3366 13.664 27.6322 9.08048 27.6322C4.50068 27.6322 0.787846 25.3366 0.787846 22.5058L0.78772 13.7288C1.50348 11.348 5.02127 9.54492 9.08029 9.54492Z" fill="#D5C8FB" stroke="#1D1D1B" stroke-width="0.8" stroke-miterlimit="10"/>
<path d="M9.08056 28.0322C9.29608 28.0322 9.47081 27.8576 9.47081 27.642C9.47081 27.4265 9.29608 27.2517 9.08056 27.2517V28.0322ZM0.397705 22.5156C0.397705 24.1162 1.44604 25.5044 3.01163 26.4723C4.5833 27.4439 6.73 28.0322 9.08056 28.0322V27.2517C6.85133 27.2517 4.85172 26.6923 3.42204 25.8084C1.98627 24.9208 1.17819 23.7459 1.17819 22.5156H0.397705Z" fill="#1D1D1B"/>
<path d="M9.08056 24.857C9.29608 24.857 9.47081 24.6823 9.47081 24.4668C9.47081 24.2513 9.29608 24.0765 9.08056 24.0765V24.857ZM0.397705 19.3403C0.397705 20.9409 1.44604 22.3291 3.01163 23.297C4.5833 24.2686 6.73 24.857 9.08056 24.857V24.0765C6.85133 24.0765 4.85172 23.517 3.42204 22.6332C1.98627 21.7455 1.17819 20.5706 1.17819 19.3403H0.397705Z" fill="#1D1D1B"/>
<path d="M9.08056 21.6811C9.29608 21.6811 9.47081 21.5064 9.47081 21.2909C9.47081 21.0754 9.29608 20.9006 9.08056 20.9006V21.6811ZM0.397705 16.1646C0.397705 17.7651 1.44604 19.1533 3.01163 20.1211C4.5833 21.0928 6.73 21.6811 9.08056 21.6811V20.9006C6.85133 20.9006 4.85172 20.3411 3.42204 19.4573C1.98627 18.5697 1.17819 17.3947 1.17819 16.1646H0.397705Z" fill="#1D1D1B"/>
<path d="M9.08029 18.6125C13.6639 18.6125 17.373 16.317 17.373 13.4863C17.373 10.6554 13.6601 8.35986 9.08029 8.35986C4.50055 8.35986 0.78772 10.6554 0.78772 13.4863C0.78772 16.317 4.50055 18.6125 9.08029 18.6125Z" fill="#EFE9FE" stroke="#1D1D1B" stroke-width="0.8" stroke-miterlimit="10"/>
<path d="M10.3308 15.9793C9.37609 16.0626 8.41414 15.9889 7.483 15.7614C7.41627 15.7361 7.34458 15.7267 7.27359 15.7339C7.20261 15.7411 7.13431 15.7648 7.07398 15.803L5.76914 16.5553L4.90958 16.0364L6.17297 15.3047L5.33414 14.8169L4.06557 15.5485L3.22675 15.0608L4.54197 14.3031C4.589 14.2847 4.62764 14.2497 4.65068 14.2046C4.65756 14.1833 4.6578 14.1605 4.65131 14.1392C4.64483 14.1179 4.63197 14.0991 4.61446 14.0853C4.30279 13.6898 4.1495 13.192 4.18466 12.6893C4.25069 12.1663 4.49811 11.6831 4.88366 11.3245C5.36237 10.8648 5.93225 10.5112 6.55619 10.2866C7.29409 9.99934 8.07073 9.82442 8.86038 9.76764L9.22282 9.72607H9.25902L8.7879 10.6187C8.27824 10.6744 7.77843 10.7984 7.30179 10.9872C6.89668 11.1447 6.52572 11.379 6.20924 11.6773C5.95031 11.9132 5.76961 12.2229 5.69145 12.5647C5.63143 12.8853 5.68836 13.2168 5.85194 13.4988L8.27521 12.0977L9.10887 12.5802L8.07326 13.1927L6.56649 14.0645C6.51472 14.0904 6.46811 14.1735 6.49918 14.1942L7.16716 14.5782C7.20125 14.5858 7.23665 14.5858 7.27075 14.5782C7.30483 14.586 7.3402 14.586 7.37429 14.5782L9.96321 13.0681L10.802 13.5559L8.39951 14.9467C8.92731 15.0412 9.46458 15.0708 9.99951 15.0349C10.5281 15.0063 11.0505 14.9069 11.5529 14.7391C11.9839 14.6024 12.3872 14.3898 12.7438 14.1112C13.0338 13.8931 13.255 13.5957 13.3807 13.2549L14.934 12.9747C14.934 12.9747 14.2092 15.5484 10.3308 15.9793Z" fill="#1D1D1B"/>
<path d="M23.7144 19.3013C27.6246 19.3013 31.1152 20.9746 31.9902 23.2258L32.0072 32.2621C32.0072 35.093 28.2981 37.3886 23.7146 37.3886C19.1348 37.3886 15.4219 35.093 15.4219 32.2621L15.4218 23.4852C16.1376 21.1044 19.6554 19.3013 23.7144 19.3013Z" fill="#D5C8FB" stroke="#1D1D1B" stroke-width="0.8" stroke-miterlimit="10"/>
<path d="M23.7147 37.7886C23.9302 37.7886 24.1049 37.6139 24.1049 37.3983C24.1049 37.1828 23.9302 37.0081 23.7147 37.0081V37.7886ZM15.0319 32.272C15.0319 33.8726 16.0802 35.2608 17.6457 36.2287C19.2174 37.2003 21.3642 37.7886 23.7147 37.7886V37.0081C21.4854 37.0081 19.4858 36.4487 18.0562 35.5648C16.6203 34.6771 15.8123 33.5022 15.8123 32.272H15.0319Z" fill="#1D1D1B"/>
<path d="M23.7147 34.6129C23.9302 34.6129 24.1049 34.4381 24.1049 34.2226C24.1049 34.0071 23.9302 33.8324 23.7147 33.8324V34.6129ZM15.0319 29.0962C15.0319 30.6968 16.0802 32.085 17.6457 33.0529C19.2174 34.0245 21.3642 34.6129 23.7147 34.6129V33.8324C21.4854 33.8324 19.4858 33.2729 18.0562 32.3891C16.6203 31.5014 15.8123 30.3264 15.8123 29.0962H15.0319Z" fill="#1D1D1B"/>
<path d="M23.7147 31.4375C23.9302 31.4375 24.1049 31.2628 24.1049 31.0472C24.1049 30.8317 23.9302 30.657 23.7147 30.657V31.4375ZM15.0319 25.9209C15.0319 27.5215 16.0802 28.9097 17.6457 29.8775C19.2174 30.8492 21.3642 31.4375 23.7147 31.4375V30.657C21.4854 30.657 19.4858 30.0975 18.0562 29.2137C16.6203 28.3261 15.8123 27.151 15.8123 25.9209H15.0319Z" fill="#1D1D1B"/>
<path d="M23.7144 28.3683C28.298 28.3683 32.0071 26.0728 32.0071 23.2421C32.0071 20.4112 28.2942 18.1157 23.7144 18.1157C19.1347 18.1157 15.4218 20.4112 15.4218 23.2421C15.4218 26.0728 19.1347 28.3683 23.7144 28.3683Z" fill="#EFE9FE" stroke="#1D1D1B" stroke-width="0.8" stroke-miterlimit="10"/>
<path d="M24.9649 25.7352C24.0102 25.8184 23.0483 25.7448 22.1171 25.5173C22.0504 25.492 21.9787 25.4825 21.9077 25.4897C21.8367 25.497 21.7684 25.5207 21.7081 25.5588L20.4033 26.3112L19.5437 25.7923L20.8071 25.0606L19.9683 24.5728L18.6997 25.3044L17.8608 24.8167L19.1761 24.059C19.2231 24.0406 19.2617 24.0055 19.2848 23.9605C19.2917 23.9392 19.2919 23.9164 19.2854 23.8951C19.279 23.8737 19.2661 23.8549 19.2485 23.8412C18.9369 23.4456 18.7836 22.9479 18.8188 22.4452C18.8848 21.9221 19.1323 21.439 19.5178 21.0804C19.9964 20.6207 20.5664 20.2671 21.1903 20.0424C21.9282 19.7552 22.7048 19.5803 23.4945 19.5235L23.8569 19.4819H23.8931L23.422 20.3745C22.9124 20.4302 22.4125 20.5542 21.9359 20.7431C21.5308 20.9006 21.1599 21.1348 20.8434 21.4332C20.5844 21.6691 20.4038 21.9787 20.3255 22.3206C20.2655 22.6412 20.3225 22.9727 20.486 23.2546L22.9093 21.8535L23.743 22.3361L22.7074 22.9486L21.2006 23.8204C21.1488 23.8462 21.1022 23.9293 21.1333 23.95L21.8012 24.334C21.8354 24.3416 21.8708 24.3416 21.9048 24.334C21.939 24.3418 21.9743 24.3418 22.0084 24.334L24.5973 22.824L25.4362 23.3118L23.0336 24.7025C23.5614 24.7971 24.0987 24.8266 24.6336 24.7907C25.1622 24.7621 25.6846 24.6627 26.187 24.495C26.618 24.3582 27.0213 24.1456 27.3779 23.8671C27.668 23.649 27.8891 23.3516 28.0148 23.0107L29.5682 22.7305C29.5682 22.7305 28.8433 25.3043 24.9649 25.7352Z" fill="#1D1D1B"/>
</svg>
