<svg width="40" height="40" viewBox="0 0 40 40" fill="none" xmlns="http://www.w3.org/2000/svg">
<path d="M35.4238 10.571C35.6193 10.6858 35.7401 10.9259 35.741 11.2678L35.7868 27.5209C35.7884 28.2136 35.296 29.063 34.6902 29.413L20.4686 37.6245C20.1443 37.8119 19.8515 37.8176 19.6496 37.6768C19.6609 37.6848 19.6721 37.6937 19.6842 37.7009L5.26691 29.4121C5.07061 29.2978 4.94833 29.0557 4.94753 28.713L4.90168 12.4608C4.90007 11.7673 5.39161 10.9185 5.99818 10.5678L20.2199 2.35639C20.5264 2.18021 20.804 2.16332 21.0043 2.27997L35.4216 10.5695L35.4238 10.571Z" fill="#D5C8FB" stroke="#1D1D1B" stroke-width="0.8" stroke-miterlimit="10"/>
<path d="M34.6481 10.6444C35.2533 10.295 35.7484 10.5738 35.75 11.2654L35.7958 27.4929C35.7975 28.1845 35.3063 29.0328 34.7004 29.3822L20.4935 37.5811C19.8875 37.9306 19.3924 37.6519 19.3908 36.9602L19.345 20.7326C19.3434 20.041 19.8344 19.1928 20.4404 18.8434L34.6481 10.6444Z" fill="white" stroke="#1D1D1B" stroke-width="0.8" stroke-miterlimit="10"/>
<path d="M19.3457 20.7305L5.00953 12.3585C5.00792 11.6669 5.4814 10.8542 6.08738 10.5049L20.4404 18.8413C19.8352 19.1907 19.3434 20.0389 19.3457 20.7305Z" fill="white" stroke="#1D1D1B" stroke-width="0.8" stroke-miterlimit="10"/>
<path d="M32.8228 14.4408C33.1342 14.2614 33.4051 14.3076 33.5406 14.5244C33.6098 14.6073 33.6502 14.7304 33.651 14.8867L33.684 26.4682C33.6848 26.6245 33.6444 26.7944 33.5753 26.9572C33.4412 27.3289 33.1716 27.687 32.861 27.8663L22.7207 33.7179C22.2753 33.9751 21.912 33.7705 21.9106 33.2619L21.8782 21.6806C21.8767 21.172 22.2378 20.5495 22.6833 20.2924L32.8228 14.4408Z" stroke="#1D1D1B" stroke-width="0.8" stroke-miterlimit="10"/>
<mask id="mask0_1_446" style="mask-type:alpha" maskUnits="userSpaceOnUse" x="21" y="14" width="13" height="20">
<path d="M32.8223 14.4427C33.1337 14.2634 33.4046 14.3095 33.5401 14.5264C33.6094 14.6092 33.6497 14.7324 33.6505 14.8887L33.6835 26.4701C33.6843 26.6264 33.6439 26.7964 33.5748 26.9592C33.4407 27.3309 33.1712 27.6889 32.8605 27.8683L22.7202 33.7198C22.2748 33.977 21.9115 33.7724 21.9101 33.2639L21.8777 21.6825C21.8762 21.1739 22.2373 20.5515 22.6828 20.2944L32.8223 14.4427Z" fill="#C4C4C4"/>
</mask>
<g mask="url(#mask0_1_446)">
<path d="M26.1614 25.6911L19.8464 21.7005C19.719 21.62 19.727 21.4317 19.8607 21.3623L23.4805 19.4849L29.7481 23.4241C29.8747 23.5036 29.8685 23.69 29.737 23.7611L26.1614 25.6911Z" fill="#EFE9FE"/>
<path d="M26.1614 25.6911L19.8464 21.7005C19.719 21.62 19.727 21.4317 19.8607 21.3623L23.4805 19.4849L29.7481 23.4241C29.8747 23.5036 29.8685 23.69 29.737 23.7611L26.1614 25.6911Z" stroke="#1D1D1B" stroke-width="0.8" stroke-linecap="round" stroke-linejoin="round"/>
<path d="M26.1544 25.8365L19.6564 21.4736L19.5534 24.0726L26.0514 28.4355L29.7806 26.2931L29.8836 23.6942L26.1544 25.8365Z" fill="#EFE9FE" stroke="#1D1D1B" stroke-width="0.8" stroke-linejoin="round"/>
<path d="M22.2764 27.7683L15.9613 23.7776C15.8339 23.6971 15.842 23.5088 15.9757 23.4395L19.5955 21.562L25.8631 25.5012C25.9896 25.5807 25.9835 25.7672 25.852 25.8382L22.2764 27.7683Z" fill="#EFE9FE"/>
<path d="M22.2764 27.7683L15.9613 23.7776C15.8339 23.6971 15.842 23.5088 15.9757 23.4395L19.5955 21.562L25.8631 25.5012C25.9896 25.5807 25.9835 25.7672 25.852 25.8382L22.2764 27.7683Z" stroke="#1D1D1B" stroke-width="0.8" stroke-linecap="round" stroke-linejoin="round"/>
<path d="M22.2694 27.9131L15.7714 23.5503L15.6683 26.1492L22.1663 30.5121L25.8956 28.3698L25.9986 25.7709L22.2694 27.9131Z" fill="#EFE9FE" stroke="#1D1D1B" stroke-width="0.8" stroke-linejoin="round"/>
</g>
<path d="M32.8228 14.4408C33.1342 14.2614 33.4051 14.3076 33.5406 14.5244C33.6098 14.6073 33.6502 14.7304 33.651 14.8867L33.684 26.4682C33.6848 26.6245 33.6444 26.7944 33.5753 26.9572C33.4412 27.3289 33.1716 27.687 32.861 27.8663L22.7207 33.7179C22.2753 33.9751 21.912 33.7705 21.9106 33.2619L21.8782 21.6806C21.8767 21.172 22.2378 20.5495 22.6833 20.2924L32.8228 14.4408Z" stroke="#1D1D1B" stroke-width="0.8" stroke-miterlimit="10"/>
<path d="M32.3838 14.8076C32.4653 14.8076 33.4599 15.061 33.8753 15.1677C33.9516 15.1873 33.9786 15.2803 33.9188 15.3316C32.8684 16.2319 26.1264 22.0091 25.9256 22.1248L24.7818 23.2272C24.7277 23.2792 24.6376 23.2534 24.6193 23.1806L24.3251 22.0034C24.2829 21.8345 24.3468 21.6478 24.4807 21.5365C25.7976 20.4407 32.2899 14.8076 32.3838 14.8076Z" fill="#1D1D1B"/>
<path d="M32.3838 14.8076C32.4653 14.8076 33.4599 15.061 33.8753 15.1677C33.9516 15.1873 33.9786 15.2803 33.9188 15.3316C32.8684 16.2319 26.1264 22.0091 25.9256 22.1248L24.7818 23.2272C24.7277 23.2792 24.6376 23.2534 24.6193 23.1806L24.3251 22.0034C24.2829 21.8345 24.3468 21.6478 24.4807 21.5365C25.7976 20.4407 32.2899 14.8076 32.3838 14.8076Z" stroke="#1D1D1B" stroke-width="0.8" stroke-miterlimit="10"/>
<path d="M25.9257 35.1553C25.9257 35.315 25.7445 35.4071 25.6155 35.313L24.334 34.3782C24.2837 34.3415 24.254 34.283 24.2539 34.2206L24.2512 21.9523C24.2512 21.8044 24.4093 21.7103 24.5392 21.7806L25.8234 22.4757C25.8863 22.5099 25.9257 22.5757 25.9257 22.6473V35.1553Z" fill="#1D1D1B" stroke="#1D1D1B" stroke-width="0.8" stroke-miterlimit="10" stroke-linejoin="round"/>
<path d="M34.5622 20.036C34.3974 20.036 34.2633 19.8679 34.2633 19.6601V17.3051C34.2633 17.0973 34.3968 16.9292 34.5622 16.9292C34.7272 16.9292 34.8613 17.0973 34.8613 17.3051V19.6601C34.8613 19.8679 34.7272 20.036 34.5622 20.036Z" fill="white" stroke="#1D1D1B" stroke-width="0.8" stroke-miterlimit="10"/>
<path d="M34.5622 26.0071C34.3974 26.0071 34.2633 25.839 34.2633 25.6312V23.2762C34.2633 23.0684 34.3968 22.9004 34.5622 22.9004C34.7272 22.9004 34.8613 23.0684 34.8613 23.2762V25.6312C34.8613 25.839 34.7272 26.0071 34.5622 26.0071Z" fill="white" stroke="#1D1D1B" stroke-width="0.8" stroke-miterlimit="10"/>
<path d="M33.9001 15.3455C34.1383 15.1718 34.3458 15.2165 34.4495 15.4264C34.5024 15.5066 34.5333 15.6259 34.5339 15.7772L34.5592 26.9888C34.5598 27.1401 34.5289 27.3047 34.4759 27.4623C34.3734 27.8222 34.167 28.1687 33.9293 28.3424L26.336 35.4702C25.9951 35.7191 25.7171 35.5211 25.716 35.0287L25.7161 23.4685C25.7149 22.9761 25.9913 22.3736 26.3322 22.1247L33.9001 15.3455Z" fill="#D5C8FB" stroke="#1D1D1B" stroke-width="0.8" stroke-miterlimit="10"/>
<path d="M32.4522 22.6948C32.3092 22.6487 32.1479 22.6475 31.9742 22.6985C31.8867 22.724 31.7955 22.7629 31.7015 22.815C31.639 22.8502 31.5757 22.8903 31.5114 22.9376C30.6281 23.5821 30.3192 25.3141 30.3221 26.597C30.3221 26.6298 30.323 26.6637 30.324 26.6953C30.324 26.7159 30.325 26.7366 30.3269 26.7572C30.3278 26.7802 30.3288 26.8033 30.3307 26.8264C30.3327 26.858 30.3355 26.8883 30.3394 26.9187C30.3394 26.9247 30.3403 26.9296 30.3413 26.9344C30.3442 26.966 30.349 26.9963 30.3528 27.0254C30.3778 27.1881 30.4172 27.3313 30.468 27.4563C30.4945 27.5186 30.5877 27.5698 30.7008 27.6153C30.8019 27.656 30.7913 27.6819 30.6875 27.6487L29.6441 27.3155C29.3571 27.1043 29.1795 26.6564 29.1776 26.0192C29.1747 24.7363 29.4914 23.1754 30.3738 22.5309C30.8183 22.2068 31.3755 22.3225 31.5114 22.3902C31.7015 22.449 32.4522 22.649 32.4522 22.6948Z" fill="#1D1D1B"/>
<path d="M32.4522 22.6948C32.3092 22.6487 32.1479 22.6475 31.9742 22.6985C31.8867 22.724 31.7955 22.7629 31.7015 22.815C31.639 22.8502 31.5757 22.8903 31.5114 22.9376C30.6281 23.5821 30.3192 25.3141 30.3221 26.597C30.3221 26.6298 30.323 26.6637 30.324 26.6953C30.324 26.7159 30.325 26.7366 30.3269 26.7572C30.3278 26.7802 30.3288 26.8033 30.3307 26.8264C30.3327 26.858 30.3355 26.8883 30.3394 26.9187C30.3394 26.9247 30.3403 26.9296 30.3413 26.9344C30.3442 26.966 30.349 26.9963 30.3528 27.0254C30.3778 27.1881 30.4172 27.3313 30.468 27.4563C30.4945 27.5186 30.5877 27.5698 30.7008 27.6153C30.8019 27.656 30.7913 27.6819 30.6875 27.6487L29.6441 27.3155C29.3571 27.1043 29.1795 26.6564 29.1776 26.0192C29.1747 24.7363 29.4914 23.1754 30.3738 22.5309C30.8183 22.2068 31.3755 22.3225 31.5114 22.3902C31.7015 22.449 32.4522 22.649 32.4522 22.6948Z" stroke="#1D1D1B" stroke-width="0.8" stroke-miterlimit="10"/>
<path d="M32.871 24.0576C32.8732 25.3405 32.3211 26.9026 31.6374 27.5471C31.2867 27.8772 30.9701 27.9027 30.7441 27.6745C30.7248 27.6551 30.7063 27.6332 30.6884 27.6102C30.6788 27.5981 30.6698 27.5859 30.6617 27.5738C30.6512 27.558 30.6408 27.5422 30.6305 27.5252C30.6155 27.5009 30.6022 27.4754 30.5888 27.4487L30.5873 27.4464C30.5814 27.4342 30.5754 27.4208 30.5695 27.4074C30.5539 27.3735 30.5397 27.3371 30.5264 27.2983C30.5204 27.2836 30.5152 27.2679 30.5101 27.251C30.4707 27.1259 30.4402 26.9827 30.4209 26.82C30.4179 26.791 30.4142 26.7606 30.4119 26.729C30.4112 26.7241 30.4105 26.7193 30.4105 26.7132C30.4075 26.6829 30.406 26.6525 30.4037 26.621C30.4023 26.5979 30.4016 26.5749 30.4008 26.5518C30.3993 26.5312 30.3986 26.5106 30.3986 26.4899C30.3979 26.4584 30.3971 26.4243 30.3971 26.3916C30.3949 25.1087 30.9463 23.5478 31.63 22.9033C31.6797 22.856 31.7288 22.8159 31.7771 22.7807C31.8499 22.7285 31.9205 22.6897 31.9881 22.6642C32.1227 22.6132 32.2475 22.6145 32.3583 22.6606C32.3716 22.6667 32.385 22.6727 32.3984 22.68C32.414 22.6885 32.4288 22.6982 32.443 22.7079C32.4534 22.7152 32.4645 22.7225 32.4742 22.731C32.4808 22.7358 32.4875 22.7407 32.4935 22.7468C32.498 22.7504 32.5024 22.7553 32.5069 22.7589C32.7312 22.9689 32.8703 23.418 32.871 24.0576Z" fill="#EFE9FE" stroke="#1D1D1B" stroke-width="0.8" stroke-miterlimit="10"/>
<path d="M31.9744 24.886V22.7344" stroke="#1D1D1B" stroke-width="0.8" stroke-linejoin="round"/>
</svg>
